<mxfile host="65bd71144e">
    <diagram id="EDKazg7N3_yeqMvH0kbg" name="Page-1">
        <mxGraphModel dx="2893" dy="889" grid="0" gridSize="10" guides="0" tooltips="1" connect="1" arrows="1" fold="1" page="0" pageScale="1" pageWidth="827" pageHeight="1169" math="0" shadow="0">
            <root>
                <mxCell id="0"/>
                <mxCell id="1" parent="0"/>
                <mxCell id="2" style="edgeStyle=orthogonalEdgeStyle;rounded=0;orthogonalLoop=1;jettySize=auto;html=1;exitX=0.5;exitY=1;exitDx=0;exitDy=0;endArrow=none;endFill=0;" parent="1" source="4" edge="1">
                    <mxGeometry relative="1" as="geometry">
                        <mxPoint x="130" y="508.5" as="targetPoint"/>
                    </mxGeometry>
                </mxCell>
                <mxCell id="3" style="edgeStyle=orthogonalEdgeStyle;rounded=0;orthogonalLoop=1;jettySize=auto;html=1;exitX=0.5;exitY=0;exitDx=0;exitDy=0;endArrow=none;endFill=0;" parent="1" source="4" edge="1">
                    <mxGeometry relative="1" as="geometry">
                        <mxPoint x="130.03448275862047" y="288.5" as="targetPoint"/>
                    </mxGeometry>
                </mxCell>
                <mxCell id="4" value="" style="ellipse;whiteSpace=wrap;html=1;aspect=fixed;" parent="1" vertex="1">
                    <mxGeometry x="90" y="368.5" width="80" height="80" as="geometry"/>
                </mxCell>
                <mxCell id="5" value="" style="group" parent="1" vertex="1" connectable="0">
                    <mxGeometry x="100" y="508.5" width="450" height="20" as="geometry"/>
                </mxCell>
                <mxCell id="6" value="" style="endArrow=none;html=1;" parent="5" edge="1">
                    <mxGeometry width="50" height="50" relative="1" as="geometry">
                        <mxPoint as="sourcePoint"/>
                        <mxPoint x="60" as="targetPoint"/>
                    </mxGeometry>
                </mxCell>
                <mxCell id="7" value="" style="endArrow=none;html=1;" parent="5" edge="1">
                    <mxGeometry width="50" height="50" relative="1" as="geometry">
                        <mxPoint x="20.000000000000114" y="19.999999999999886" as="sourcePoint"/>
                        <mxPoint x="40" y="20" as="targetPoint"/>
                    </mxGeometry>
                </mxCell>
                <mxCell id="8" value="" style="endArrow=none;html=1;" parent="5" edge="1">
                    <mxGeometry width="50" height="50" relative="1" as="geometry">
                        <mxPoint x="10" y="10" as="sourcePoint"/>
                        <mxPoint x="50" y="10" as="targetPoint"/>
                    </mxGeometry>
                </mxCell>
                <mxCell id="9" value="" style="group" parent="5" vertex="1" connectable="0">
                    <mxGeometry x="390" width="60" height="20" as="geometry"/>
                </mxCell>
                <mxCell id="10" value="" style="endArrow=none;html=1;" parent="9" edge="1">
                    <mxGeometry width="50" height="50" relative="1" as="geometry">
                        <mxPoint as="sourcePoint"/>
                        <mxPoint x="60" as="targetPoint"/>
                    </mxGeometry>
                </mxCell>
                <mxCell id="11" value="" style="endArrow=none;html=1;" parent="9" edge="1">
                    <mxGeometry width="50" height="50" relative="1" as="geometry">
                        <mxPoint x="20.000000000000114" y="19.999999999999886" as="sourcePoint"/>
                        <mxPoint x="40" y="20" as="targetPoint"/>
                    </mxGeometry>
                </mxCell>
                <mxCell id="12" value="" style="endArrow=none;html=1;" parent="9" edge="1">
                    <mxGeometry width="50" height="50" relative="1" as="geometry">
                        <mxPoint x="10" y="10" as="sourcePoint"/>
                        <mxPoint x="50" y="10" as="targetPoint"/>
                    </mxGeometry>
                </mxCell>
                <mxCell id="13" value="&lt;font style=&quot;font-size: 30px&quot;&gt;V&lt;/font&gt;" style="text;html=1;strokeColor=none;fillColor=none;align=center;verticalAlign=middle;whiteSpace=wrap;rounded=0;" parent="1" vertex="1">
                    <mxGeometry x="110" y="388.5" width="40" height="40" as="geometry"/>
                </mxCell>
                <mxCell id="14" value="" style="pointerEvents=1;verticalLabelPosition=bottom;shadow=0;dashed=0;align=center;html=1;verticalAlign=top;shape=mxgraph.electrical.resistors.resistor_2;" parent="1" vertex="1">
                    <mxGeometry x="130" y="278.5" width="200" height="20" as="geometry"/>
                </mxCell>
                <mxCell id="15" value="" style="pointerEvents=1;verticalLabelPosition=bottom;shadow=0;dashed=0;align=center;html=1;verticalAlign=top;shape=mxgraph.electrical.inductors.inductor_3;" parent="1" vertex="1">
                    <mxGeometry x="330" y="278.5" width="190" height="10" as="geometry"/>
                </mxCell>
                <mxCell id="16" value="" style="group" parent="1" vertex="1" connectable="0">
                    <mxGeometry x="-280" y="368.5" width="102.99038105676664" height="240" as="geometry"/>
                </mxCell>
                <mxCell id="17" style="edgeStyle=orthogonalEdgeStyle;rounded=0;orthogonalLoop=1;jettySize=auto;html=1;exitX=0.5;exitY=1;exitDx=0;exitDy=0;endArrow=none;endFill=0;" parent="16" source="19" edge="1">
                    <mxGeometry relative="1" as="geometry">
                        <mxPoint x="50" y="220" as="targetPoint"/>
                    </mxGeometry>
                </mxCell>
                <mxCell id="18" style="edgeStyle=orthogonalEdgeStyle;rounded=0;orthogonalLoop=1;jettySize=auto;html=1;exitX=0.5;exitY=0;exitDx=0;exitDy=0;endArrow=none;endFill=0;" parent="16" source="19" edge="1">
                    <mxGeometry relative="1" as="geometry">
                        <mxPoint x="50" as="targetPoint"/>
                    </mxGeometry>
                </mxCell>
                <mxCell id="19" value="" style="ellipse;whiteSpace=wrap;html=1;aspect=fixed;" parent="16" vertex="1">
                    <mxGeometry x="10" y="80" width="80" height="80" as="geometry"/>
                </mxCell>
                <mxCell id="20" value="" style="group" parent="16" vertex="1" connectable="0">
                    <mxGeometry y="110" width="20" height="20" as="geometry"/>
                </mxCell>
                <mxCell id="21" value="" style="endArrow=none;html=1;" parent="20" edge="1">
                    <mxGeometry x="560" y="360" width="50" height="50" as="geometry">
                        <mxPoint y="20" as="sourcePoint"/>
                        <mxPoint x="20" as="targetPoint"/>
                    </mxGeometry>
                </mxCell>
                <mxCell id="22" value="" style="endArrow=none;html=1;" parent="20" edge="1">
                    <mxGeometry x="560" y="360" width="50" height="50" as="geometry">
                        <mxPoint x="20" y="20" as="sourcePoint"/>
                        <mxPoint as="targetPoint"/>
                    </mxGeometry>
                </mxCell>
                <mxCell id="23" value="" style="group;rotation=35;" parent="16" vertex="1" connectable="0">
                    <mxGeometry x="69" y="137" width="20" height="20" as="geometry"/>
                </mxCell>
                <mxCell id="24" value="" style="endArrow=none;html=1;" parent="23" edge="1">
                    <mxGeometry x="241" y="622" width="50" height="50" as="geometry">
                        <mxPoint x="-4" y="12" as="sourcePoint"/>
                        <mxPoint x="24" y="8" as="targetPoint"/>
                    </mxGeometry>
                </mxCell>
                <mxCell id="25" value="" style="endArrow=none;html=1;" parent="23" edge="1">
                    <mxGeometry x="241" y="622" width="50" height="50" as="geometry">
                        <mxPoint x="12" y="24" as="sourcePoint"/>
                        <mxPoint x="8" y="-4" as="targetPoint"/>
                    </mxGeometry>
                </mxCell>
                <mxCell id="26" value="" style="group;rotation=-30;" parent="16" vertex="1" connectable="0">
                    <mxGeometry x="70" y="90" width="30" height="20" as="geometry"/>
                </mxCell>
                <mxCell id="27" value="" style="endArrow=none;html=1;" parent="26" edge="1">
                    <mxGeometry x="675" y="22" width="50" height="50" as="geometry">
                        <mxPoint x="11" y="24" as="sourcePoint"/>
                        <mxPoint x="19" y="-4" as="targetPoint"/>
                    </mxGeometry>
                </mxCell>
                <mxCell id="28" value="" style="endArrow=none;html=1;" parent="26" edge="1">
                    <mxGeometry x="675" y="22" width="50" height="50" as="geometry">
                        <mxPoint x="29" y="14" as="sourcePoint"/>
                        <mxPoint x="1" y="6" as="targetPoint"/>
                    </mxGeometry>
                </mxCell>
                <mxCell id="29" value="" style="endArrow=none;html=1;" parent="26" edge="1">
                    <mxGeometry width="50" height="50" relative="1" as="geometry">
                        <mxPoint x="2" y="17" as="sourcePoint"/>
                        <mxPoint x="28" y="2" as="targetPoint"/>
                    </mxGeometry>
                </mxCell>
                <mxCell id="30" value="" style="group" parent="16" vertex="1" connectable="0">
                    <mxGeometry x="20" y="220" width="60" height="20" as="geometry"/>
                </mxCell>
                <mxCell id="31" value="" style="endArrow=none;html=1;" parent="30" edge="1">
                    <mxGeometry width="50" height="50" relative="1" as="geometry">
                        <mxPoint as="sourcePoint"/>
                        <mxPoint x="60" as="targetPoint"/>
                    </mxGeometry>
                </mxCell>
                <mxCell id="32" value="" style="endArrow=none;html=1;" parent="30" edge="1">
                    <mxGeometry width="50" height="50" relative="1" as="geometry">
                        <mxPoint x="20.000000000000114" y="19.999999999999886" as="sourcePoint"/>
                        <mxPoint x="40" y="20" as="targetPoint"/>
                    </mxGeometry>
                </mxCell>
                <mxCell id="33" value="" style="endArrow=none;html=1;" parent="30" edge="1">
                    <mxGeometry width="50" height="50" relative="1" as="geometry">
                        <mxPoint x="10" y="10" as="sourcePoint"/>
                        <mxPoint x="50" y="10" as="targetPoint"/>
                    </mxGeometry>
                </mxCell>
                <mxCell id="34" value="" style="group" parent="1" vertex="1" connectable="0">
                    <mxGeometry x="-260" y="140" width="60" height="20" as="geometry"/>
                </mxCell>
                <mxCell id="35" value="" style="endArrow=none;html=1;" parent="34" edge="1">
                    <mxGeometry width="50" height="50" relative="1" as="geometry">
                        <mxPoint as="sourcePoint"/>
                        <mxPoint x="60" as="targetPoint"/>
                    </mxGeometry>
                </mxCell>
                <mxCell id="36" value="" style="endArrow=none;html=1;" parent="34" edge="1">
                    <mxGeometry width="50" height="50" relative="1" as="geometry">
                        <mxPoint x="20.000000000000114" y="19.999999999999886" as="sourcePoint"/>
                        <mxPoint x="40" y="20" as="targetPoint"/>
                    </mxGeometry>
                </mxCell>
                <mxCell id="37" value="" style="endArrow=none;html=1;" parent="34" edge="1">
                    <mxGeometry width="50" height="50" relative="1" as="geometry">
                        <mxPoint x="10" y="10" as="sourcePoint"/>
                        <mxPoint x="50" y="10" as="targetPoint"/>
                    </mxGeometry>
                </mxCell>
                <mxCell id="38" value="" style="group;rotation=-90;" parent="1" vertex="1" connectable="0">
                    <mxGeometry x="589" y="167.5" width="113.99038105676664" height="1162.5" as="geometry"/>
                </mxCell>
                <mxCell id="39" style="edgeStyle=orthogonalEdgeStyle;rounded=0;orthogonalLoop=1;jettySize=auto;html=1;exitX=0.5;exitY=1;exitDx=0;exitDy=0;endArrow=none;endFill=0;" parent="38" source="41" edge="1">
                    <mxGeometry x="-69" y="171" as="geometry">
                        <mxPoint x="171" y="121" as="targetPoint"/>
                    </mxGeometry>
                </mxCell>
                <mxCell id="40" style="edgeStyle=orthogonalEdgeStyle;rounded=0;orthogonalLoop=1;jettySize=auto;html=1;exitX=0.5;exitY=0;exitDx=0;exitDy=0;endArrow=none;endFill=0;" parent="38" source="41" edge="1">
                    <mxGeometry x="-69" y="171" as="geometry">
                        <mxPoint x="-69" y="121" as="targetPoint"/>
                    </mxGeometry>
                </mxCell>
                <mxCell id="41" value="" style="ellipse;whiteSpace=wrap;html=1;aspect=fixed;rotation=-90;" parent="38" vertex="1">
                    <mxGeometry x="11" y="81" width="80" height="80" as="geometry"/>
                </mxCell>
                <mxCell id="42" value="" style="group;rotation=-90;" parent="38" vertex="1" connectable="0">
                    <mxGeometry x="41" y="151" width="20" height="20" as="geometry"/>
                </mxCell>
                <mxCell id="43" value="" style="endArrow=none;html=1;" parent="42" edge="1">
                    <mxGeometry x="360" y="-590" width="50" height="50" as="geometry">
                        <mxPoint x="20" y="20" as="sourcePoint"/>
                        <mxPoint as="targetPoint"/>
                    </mxGeometry>
                </mxCell>
                <mxCell id="44" value="" style="endArrow=none;html=1;" parent="42" edge="1">
                    <mxGeometry x="360" y="-590" width="50" height="50" as="geometry">
                        <mxPoint x="20" as="sourcePoint"/>
                        <mxPoint y="20" as="targetPoint"/>
                    </mxGeometry>
                </mxCell>
                <mxCell id="45" value="" style="group;rotation=-55;" parent="38" vertex="1" connectable="0">
                    <mxGeometry x="68" y="82" width="20" height="20" as="geometry"/>
                </mxCell>
                <mxCell id="46" value="" style="endArrow=none;html=1;" parent="45" edge="1">
                    <mxGeometry x="622" y="-271" width="50" height="50" as="geometry">
                        <mxPoint x="12" y="24" as="sourcePoint"/>
                        <mxPoint x="8" y="-4" as="targetPoint"/>
                    </mxGeometry>
                </mxCell>
                <mxCell id="47" value="" style="endArrow=none;html=1;" parent="45" edge="1">
                    <mxGeometry x="622" y="-271" width="50" height="50" as="geometry">
                        <mxPoint x="24" y="8" as="sourcePoint"/>
                        <mxPoint x="-4" y="12" as="targetPoint"/>
                    </mxGeometry>
                </mxCell>
                <mxCell id="48" value="" style="group;rotation=-120;" parent="38" vertex="1" connectable="0">
                    <mxGeometry x="16" y="76" width="30" height="20" as="geometry"/>
                </mxCell>
                <mxCell id="49" value="" style="endArrow=none;html=1;" parent="48" edge="1">
                    <mxGeometry x="27" y="-700" width="50" height="50" as="geometry">
                        <mxPoint x="29" y="14" as="sourcePoint"/>
                        <mxPoint x="1" y="6" as="targetPoint"/>
                    </mxGeometry>
                </mxCell>
                <mxCell id="50" value="" style="endArrow=none;html=1;" parent="48" edge="1">
                    <mxGeometry x="27" y="-700" width="50" height="50" as="geometry">
                        <mxPoint x="19" y="-4" as="sourcePoint"/>
                        <mxPoint x="11" y="24" as="targetPoint"/>
                    </mxGeometry>
                </mxCell>
                <mxCell id="51" value="" style="endArrow=none;html=1;" parent="48" edge="1">
                    <mxGeometry width="50" height="50" relative="1" as="geometry">
                        <mxPoint x="22" y="23" as="sourcePoint"/>
                        <mxPoint x="7" y="-3" as="targetPoint"/>
                    </mxGeometry>
                </mxCell>
                <mxCell id="52" style="edgeStyle=orthogonalEdgeStyle;rounded=0;orthogonalLoop=1;jettySize=auto;html=1;exitX=1;exitY=1;exitDx=0;exitDy=0;exitPerimeter=0;endArrow=none;endFill=0;" parent="1" source="54" edge="1">
                    <mxGeometry relative="1" as="geometry">
                        <mxPoint x="520" y="508.5" as="targetPoint"/>
                    </mxGeometry>
                </mxCell>
                <mxCell id="53" style="edgeStyle=orthogonalEdgeStyle;rounded=0;orthogonalLoop=1;jettySize=auto;html=1;exitX=0;exitY=1;exitDx=0;exitDy=0;exitPerimeter=0;entryX=0;entryY=1;entryDx=0;entryDy=0;entryPerimeter=0;endArrow=none;endFill=0;" parent="1" edge="1">
                    <mxGeometry relative="1" as="geometry">
                        <mxPoint x="520" y="308.5" as="sourcePoint"/>
                        <mxPoint x="520" y="289.5" as="targetPoint"/>
                    </mxGeometry>
                </mxCell>
                <mxCell id="54" value="" style="pointerEvents=1;verticalLabelPosition=bottom;shadow=0;dashed=0;align=center;html=1;verticalAlign=top;shape=mxgraph.electrical.inductors.inductor_3;rotation=90;" parent="1" vertex="1">
                    <mxGeometry x="430" y="397.5" width="190" height="10" as="geometry"/>
                </mxCell>
                <mxCell id="55" value="" style="pointerEvents=1;verticalLabelPosition=bottom;shadow=0;dashed=0;align=center;html=1;verticalAlign=top;shape=mxgraph.electrical.inductors.inductor_3;" parent="1" vertex="1">
                    <mxGeometry x="760" y="278.5" width="190" height="10" as="geometry"/>
                </mxCell>
                <mxCell id="56" value="" style="pointerEvents=1;verticalLabelPosition=bottom;shadow=0;dashed=0;align=center;html=1;verticalAlign=top;shape=mxgraph.electrical.inductors.inductor_3;" parent="1" vertex="1">
                    <mxGeometry x="951" y="278.5" width="190" height="10" as="geometry"/>
                </mxCell>
                <mxCell id="57" value="" style="group" parent="1" vertex="1" connectable="0">
                    <mxGeometry x="1091" y="288.5" width="102.99038105676664" height="240" as="geometry"/>
                </mxCell>
                <mxCell id="58" style="edgeStyle=orthogonalEdgeStyle;rounded=0;orthogonalLoop=1;jettySize=auto;html=1;exitX=0.5;exitY=1;exitDx=0;exitDy=0;endArrow=none;endFill=0;" parent="57" source="60" edge="1">
                    <mxGeometry relative="1" as="geometry">
                        <mxPoint x="50" y="220" as="targetPoint"/>
                    </mxGeometry>
                </mxCell>
                <mxCell id="59" style="edgeStyle=orthogonalEdgeStyle;rounded=0;orthogonalLoop=1;jettySize=auto;html=1;exitX=0.5;exitY=0;exitDx=0;exitDy=0;endArrow=none;endFill=0;" parent="57" source="60" edge="1">
                    <mxGeometry relative="1" as="geometry">
                        <mxPoint x="50" as="targetPoint"/>
                    </mxGeometry>
                </mxCell>
                <mxCell id="60" value="" style="ellipse;whiteSpace=wrap;html=1;aspect=fixed;" parent="57" vertex="1">
                    <mxGeometry x="10" y="80" width="80" height="80" as="geometry"/>
                </mxCell>
                <mxCell id="61" value="" style="group" parent="57" vertex="1" connectable="0">
                    <mxGeometry y="110" width="20" height="20" as="geometry"/>
                </mxCell>
                <mxCell id="62" value="" style="endArrow=none;html=1;" parent="61" edge="1">
                    <mxGeometry x="560" y="360" width="50" height="50" as="geometry">
                        <mxPoint y="20" as="sourcePoint"/>
                        <mxPoint x="20" as="targetPoint"/>
                    </mxGeometry>
                </mxCell>
                <mxCell id="63" value="" style="endArrow=none;html=1;" parent="61" edge="1">
                    <mxGeometry x="560" y="360" width="50" height="50" as="geometry">
                        <mxPoint x="20" y="20" as="sourcePoint"/>
                        <mxPoint as="targetPoint"/>
                    </mxGeometry>
                </mxCell>
                <mxCell id="64" value="" style="group;rotation=35;" parent="57" vertex="1" connectable="0">
                    <mxGeometry x="69" y="137" width="20" height="20" as="geometry"/>
                </mxCell>
                <mxCell id="65" value="" style="endArrow=none;html=1;" parent="64" edge="1">
                    <mxGeometry x="241" y="622" width="50" height="50" as="geometry">
                        <mxPoint x="-4" y="12" as="sourcePoint"/>
                        <mxPoint x="24" y="8" as="targetPoint"/>
                    </mxGeometry>
                </mxCell>
                <mxCell id="66" value="" style="endArrow=none;html=1;" parent="64" edge="1">
                    <mxGeometry x="241" y="622" width="50" height="50" as="geometry">
                        <mxPoint x="12" y="24" as="sourcePoint"/>
                        <mxPoint x="8" y="-4" as="targetPoint"/>
                    </mxGeometry>
                </mxCell>
                <mxCell id="67" value="" style="group;rotation=-30;" parent="57" vertex="1" connectable="0">
                    <mxGeometry x="70" y="90" width="30" height="20" as="geometry"/>
                </mxCell>
                <mxCell id="68" value="" style="endArrow=none;html=1;" parent="67" edge="1">
                    <mxGeometry x="675" y="22" width="50" height="50" as="geometry">
                        <mxPoint x="11" y="24" as="sourcePoint"/>
                        <mxPoint x="19" y="-4" as="targetPoint"/>
                    </mxGeometry>
                </mxCell>
                <mxCell id="69" value="" style="endArrow=none;html=1;" parent="67" edge="1">
                    <mxGeometry x="675" y="22" width="50" height="50" as="geometry">
                        <mxPoint x="29" y="14" as="sourcePoint"/>
                        <mxPoint x="1" y="6" as="targetPoint"/>
                    </mxGeometry>
                </mxCell>
                <mxCell id="70" value="" style="endArrow=none;html=1;" parent="67" edge="1">
                    <mxGeometry width="50" height="50" relative="1" as="geometry">
                        <mxPoint x="2" y="17" as="sourcePoint"/>
                        <mxPoint x="28" y="2" as="targetPoint"/>
                    </mxGeometry>
                </mxCell>
                <mxCell id="71" value="" style="group" parent="57" vertex="1" connectable="0">
                    <mxGeometry x="20" y="220" width="60" height="20" as="geometry"/>
                </mxCell>
                <mxCell id="72" value="" style="endArrow=none;html=1;" parent="71" edge="1">
                    <mxGeometry width="50" height="50" relative="1" as="geometry">
                        <mxPoint as="sourcePoint"/>
                        <mxPoint x="60" as="targetPoint"/>
                    </mxGeometry>
                </mxCell>
                <mxCell id="73" value="" style="endArrow=none;html=1;" parent="71" edge="1">
                    <mxGeometry width="50" height="50" relative="1" as="geometry">
                        <mxPoint x="20.000000000000114" y="19.999999999999886" as="sourcePoint"/>
                        <mxPoint x="40" y="20" as="targetPoint"/>
                    </mxGeometry>
                </mxCell>
                <mxCell id="74" value="" style="endArrow=none;html=1;" parent="71" edge="1">
                    <mxGeometry width="50" height="50" relative="1" as="geometry">
                        <mxPoint x="10" y="10" as="sourcePoint"/>
                        <mxPoint x="50" y="10" as="targetPoint"/>
                    </mxGeometry>
                </mxCell>
                <mxCell id="75" value="" style="pointerEvents=1;verticalLabelPosition=bottom;shadow=0;dashed=0;align=center;html=1;verticalAlign=top;shape=mxgraph.electrical.resistors.resistor_2;rotation=90;" parent="1" vertex="1">
                    <mxGeometry x="860" y="177.5" width="200" height="20" as="geometry"/>
                </mxCell>
                <mxCell id="76" value="" style="triangle;whiteSpace=wrap;html=1;rotation=-90;" parent="1" vertex="1">
                    <mxGeometry x="937.5" y="30" width="45" height="70" as="geometry"/>
                </mxCell>
                <mxCell id="77" value="" style="group" parent="1" vertex="1" connectable="0">
                    <mxGeometry x="17.999999999999993" y="752.5" width="815.9903810567666" height="486" as="geometry"/>
                </mxCell>
                <mxCell id="78" value="" style="pointerEvents=1;verticalLabelPosition=bottom;shadow=0;dashed=0;align=center;html=1;verticalAlign=top;shape=mxgraph.electrical.inductors.inductor_3;" parent="77" vertex="1">
                    <mxGeometry x="382" y="236" width="190" height="10" as="geometry"/>
                </mxCell>
                <mxCell id="79" value="" style="pointerEvents=1;verticalLabelPosition=bottom;shadow=0;dashed=0;align=center;html=1;verticalAlign=top;shape=mxgraph.electrical.inductors.inductor_3;" parent="77" vertex="1">
                    <mxGeometry x="573" y="236" width="190" height="10" as="geometry"/>
                </mxCell>
                <mxCell id="80" value="" style="group" parent="77" vertex="1" connectable="0">
                    <mxGeometry x="713" y="246" width="102.99038105676664" height="240" as="geometry"/>
                </mxCell>
                <mxCell id="81" style="edgeStyle=orthogonalEdgeStyle;rounded=0;orthogonalLoop=1;jettySize=auto;html=1;exitX=0.5;exitY=1;exitDx=0;exitDy=0;endArrow=none;endFill=0;" parent="80" source="83" edge="1">
                    <mxGeometry relative="1" as="geometry">
                        <mxPoint x="50" y="220" as="targetPoint"/>
                    </mxGeometry>
                </mxCell>
                <mxCell id="82" style="edgeStyle=orthogonalEdgeStyle;rounded=0;orthogonalLoop=1;jettySize=auto;html=1;exitX=0.5;exitY=0;exitDx=0;exitDy=0;endArrow=none;endFill=0;" parent="80" source="83" edge="1">
                    <mxGeometry relative="1" as="geometry">
                        <mxPoint x="50" as="targetPoint"/>
                    </mxGeometry>
                </mxCell>
                <mxCell id="83" value="" style="ellipse;whiteSpace=wrap;html=1;aspect=fixed;" parent="80" vertex="1">
                    <mxGeometry x="10" y="80" width="80" height="80" as="geometry"/>
                </mxCell>
                <mxCell id="84" value="" style="group" parent="80" vertex="1" connectable="0">
                    <mxGeometry y="110" width="20" height="20" as="geometry"/>
                </mxCell>
                <mxCell id="85" value="" style="endArrow=none;html=1;" parent="84" edge="1">
                    <mxGeometry x="560" y="360" width="50" height="50" as="geometry">
                        <mxPoint y="20" as="sourcePoint"/>
                        <mxPoint x="20" as="targetPoint"/>
                    </mxGeometry>
                </mxCell>
                <mxCell id="86" value="" style="endArrow=none;html=1;" parent="84" edge="1">
                    <mxGeometry x="560" y="360" width="50" height="50" as="geometry">
                        <mxPoint x="20" y="20" as="sourcePoint"/>
                        <mxPoint as="targetPoint"/>
                    </mxGeometry>
                </mxCell>
                <mxCell id="87" value="" style="group;rotation=35;" parent="80" vertex="1" connectable="0">
                    <mxGeometry x="69" y="137" width="20" height="20" as="geometry"/>
                </mxCell>
                <mxCell id="88" value="" style="endArrow=none;html=1;" parent="87" edge="1">
                    <mxGeometry x="241" y="622" width="50" height="50" as="geometry">
                        <mxPoint x="-4" y="12" as="sourcePoint"/>
                        <mxPoint x="24" y="8" as="targetPoint"/>
                    </mxGeometry>
                </mxCell>
                <mxCell id="89" value="" style="endArrow=none;html=1;" parent="87" edge="1">
                    <mxGeometry x="241" y="622" width="50" height="50" as="geometry">
                        <mxPoint x="12" y="24" as="sourcePoint"/>
                        <mxPoint x="8" y="-4" as="targetPoint"/>
                    </mxGeometry>
                </mxCell>
                <mxCell id="90" value="" style="group;rotation=-30;" parent="80" vertex="1" connectable="0">
                    <mxGeometry x="70" y="90" width="30" height="20" as="geometry"/>
                </mxCell>
                <mxCell id="91" value="" style="endArrow=none;html=1;" parent="90" edge="1">
                    <mxGeometry x="675" y="22" width="50" height="50" as="geometry">
                        <mxPoint x="11" y="24" as="sourcePoint"/>
                        <mxPoint x="19" y="-4" as="targetPoint"/>
                    </mxGeometry>
                </mxCell>
                <mxCell id="92" value="" style="endArrow=none;html=1;" parent="90" edge="1">
                    <mxGeometry x="675" y="22" width="50" height="50" as="geometry">
                        <mxPoint x="29" y="14" as="sourcePoint"/>
                        <mxPoint x="1" y="6" as="targetPoint"/>
                    </mxGeometry>
                </mxCell>
                <mxCell id="93" value="" style="endArrow=none;html=1;" parent="90" edge="1">
                    <mxGeometry width="50" height="50" relative="1" as="geometry">
                        <mxPoint x="2" y="17" as="sourcePoint"/>
                        <mxPoint x="28" y="2" as="targetPoint"/>
                    </mxGeometry>
                </mxCell>
                <mxCell id="94" value="" style="group" parent="80" vertex="1" connectable="0">
                    <mxGeometry x="20" y="220" width="60" height="20" as="geometry"/>
                </mxCell>
                <mxCell id="95" value="" style="endArrow=none;html=1;" parent="94" edge="1">
                    <mxGeometry width="50" height="50" relative="1" as="geometry">
                        <mxPoint as="sourcePoint"/>
                        <mxPoint x="60" as="targetPoint"/>
                    </mxGeometry>
                </mxCell>
                <mxCell id="96" value="" style="endArrow=none;html=1;" parent="94" edge="1">
                    <mxGeometry width="50" height="50" relative="1" as="geometry">
                        <mxPoint x="20.000000000000114" y="19.999999999999886" as="sourcePoint"/>
                        <mxPoint x="40" y="20" as="targetPoint"/>
                    </mxGeometry>
                </mxCell>
                <mxCell id="97" value="" style="endArrow=none;html=1;" parent="94" edge="1">
                    <mxGeometry width="50" height="50" relative="1" as="geometry">
                        <mxPoint x="10" y="10" as="sourcePoint"/>
                        <mxPoint x="50" y="10" as="targetPoint"/>
                    </mxGeometry>
                </mxCell>
                <mxCell id="98" value="" style="pointerEvents=1;verticalLabelPosition=bottom;shadow=0;dashed=0;align=center;html=1;verticalAlign=top;shape=mxgraph.electrical.resistors.resistor_2;rotation=90;" parent="77" vertex="1">
                    <mxGeometry x="482" y="135" width="200" height="20" as="geometry"/>
                </mxCell>
                <mxCell id="99" value="" style="triangle;whiteSpace=wrap;html=1;rotation=-90;" parent="77" vertex="1">
                    <mxGeometry x="559.5" y="-12.5" width="45" height="70" as="geometry"/>
                </mxCell>
                <mxCell id="100" value="" style="pointerEvents=1;verticalLabelPosition=bottom;shadow=0;dashed=0;align=center;html=1;verticalAlign=top;shape=mxgraph.electrical.inductors.inductor_3;" parent="77" vertex="1">
                    <mxGeometry y="236" width="190" height="10" as="geometry"/>
                </mxCell>
                <mxCell id="101" value="" style="pointerEvents=1;verticalLabelPosition=bottom;shadow=0;dashed=0;align=center;html=1;verticalAlign=top;shape=mxgraph.electrical.inductors.inductor_3;" parent="77" vertex="1">
                    <mxGeometry x="191" y="236" width="190" height="10" as="geometry"/>
                </mxCell>
                <mxCell id="102" value="" style="group" parent="77" vertex="1" connectable="0">
                    <mxGeometry x="331" y="246" width="102.99038105676664" height="240" as="geometry"/>
                </mxCell>
                <mxCell id="103" style="edgeStyle=orthogonalEdgeStyle;rounded=0;orthogonalLoop=1;jettySize=auto;html=1;exitX=0.5;exitY=1;exitDx=0;exitDy=0;endArrow=none;endFill=0;" parent="102" source="105" edge="1">
                    <mxGeometry relative="1" as="geometry">
                        <mxPoint x="50" y="220" as="targetPoint"/>
                    </mxGeometry>
                </mxCell>
                <mxCell id="104" style="edgeStyle=orthogonalEdgeStyle;rounded=0;orthogonalLoop=1;jettySize=auto;html=1;exitX=0.5;exitY=0;exitDx=0;exitDy=0;endArrow=none;endFill=0;" parent="102" source="105" edge="1">
                    <mxGeometry relative="1" as="geometry">
                        <mxPoint x="50" as="targetPoint"/>
                    </mxGeometry>
                </mxCell>
                <mxCell id="105" value="" style="ellipse;whiteSpace=wrap;html=1;aspect=fixed;" parent="102" vertex="1">
                    <mxGeometry x="10" y="80" width="80" height="80" as="geometry"/>
                </mxCell>
                <mxCell id="106" value="" style="group" parent="102" vertex="1" connectable="0">
                    <mxGeometry y="110" width="20" height="20" as="geometry"/>
                </mxCell>
                <mxCell id="107" value="" style="endArrow=none;html=1;" parent="106" edge="1">
                    <mxGeometry x="560" y="360" width="50" height="50" as="geometry">
                        <mxPoint y="20" as="sourcePoint"/>
                        <mxPoint x="20" as="targetPoint"/>
                    </mxGeometry>
                </mxCell>
                <mxCell id="108" value="" style="endArrow=none;html=1;" parent="106" edge="1">
                    <mxGeometry x="560" y="360" width="50" height="50" as="geometry">
                        <mxPoint x="20" y="20" as="sourcePoint"/>
                        <mxPoint as="targetPoint"/>
                    </mxGeometry>
                </mxCell>
                <mxCell id="109" value="" style="group;rotation=35;" parent="102" vertex="1" connectable="0">
                    <mxGeometry x="69" y="137" width="20" height="20" as="geometry"/>
                </mxCell>
                <mxCell id="110" value="" style="endArrow=none;html=1;" parent="109" edge="1">
                    <mxGeometry x="241" y="622" width="50" height="50" as="geometry">
                        <mxPoint x="-4" y="12" as="sourcePoint"/>
                        <mxPoint x="24" y="8" as="targetPoint"/>
                    </mxGeometry>
                </mxCell>
                <mxCell id="111" value="" style="endArrow=none;html=1;" parent="109" edge="1">
                    <mxGeometry x="241" y="622" width="50" height="50" as="geometry">
                        <mxPoint x="12" y="24" as="sourcePoint"/>
                        <mxPoint x="8" y="-4" as="targetPoint"/>
                    </mxGeometry>
                </mxCell>
                <mxCell id="112" value="" style="group;rotation=-30;" parent="102" vertex="1" connectable="0">
                    <mxGeometry x="70" y="90" width="30" height="20" as="geometry"/>
                </mxCell>
                <mxCell id="113" value="" style="endArrow=none;html=1;" parent="112" edge="1">
                    <mxGeometry x="675" y="22" width="50" height="50" as="geometry">
                        <mxPoint x="11" y="24" as="sourcePoint"/>
                        <mxPoint x="19" y="-4" as="targetPoint"/>
                    </mxGeometry>
                </mxCell>
                <mxCell id="114" value="" style="endArrow=none;html=1;" parent="112" edge="1">
                    <mxGeometry x="675" y="22" width="50" height="50" as="geometry">
                        <mxPoint x="29" y="14" as="sourcePoint"/>
                        <mxPoint x="1" y="6" as="targetPoint"/>
                    </mxGeometry>
                </mxCell>
                <mxCell id="115" value="" style="endArrow=none;html=1;" parent="112" edge="1">
                    <mxGeometry width="50" height="50" relative="1" as="geometry">
                        <mxPoint x="2" y="17" as="sourcePoint"/>
                        <mxPoint x="28" y="2" as="targetPoint"/>
                    </mxGeometry>
                </mxCell>
                <mxCell id="116" value="" style="group" parent="102" vertex="1" connectable="0">
                    <mxGeometry x="20" y="220" width="60" height="20" as="geometry"/>
                </mxCell>
                <mxCell id="117" value="" style="endArrow=none;html=1;" parent="116" edge="1">
                    <mxGeometry width="50" height="50" relative="1" as="geometry">
                        <mxPoint as="sourcePoint"/>
                        <mxPoint x="60" as="targetPoint"/>
                    </mxGeometry>
                </mxCell>
                <mxCell id="118" value="" style="endArrow=none;html=1;" parent="116" edge="1">
                    <mxGeometry width="50" height="50" relative="1" as="geometry">
                        <mxPoint x="20.000000000000114" y="19.999999999999886" as="sourcePoint"/>
                        <mxPoint x="40" y="20" as="targetPoint"/>
                    </mxGeometry>
                </mxCell>
                <mxCell id="119" value="" style="endArrow=none;html=1;" parent="116" edge="1">
                    <mxGeometry width="50" height="50" relative="1" as="geometry">
                        <mxPoint x="10" y="10" as="sourcePoint"/>
                        <mxPoint x="50" y="10" as="targetPoint"/>
                    </mxGeometry>
                </mxCell>
                <mxCell id="120" value="" style="group" parent="1" vertex="1" connectable="0">
                    <mxGeometry x="-1120" y="640" width="815.9903810567666" height="486" as="geometry"/>
                </mxCell>
                <mxCell id="121" value="" style="pointerEvents=1;verticalLabelPosition=bottom;shadow=0;dashed=0;align=center;html=1;verticalAlign=top;shape=mxgraph.electrical.inductors.inductor_3;" parent="120" vertex="1">
                    <mxGeometry x="382" y="236" width="190" height="10" as="geometry"/>
                </mxCell>
                <mxCell id="122" value="" style="pointerEvents=1;verticalLabelPosition=bottom;shadow=0;dashed=0;align=center;html=1;verticalAlign=top;shape=mxgraph.electrical.inductors.inductor_3;" parent="120" vertex="1">
                    <mxGeometry x="573" y="236" width="190" height="10" as="geometry"/>
                </mxCell>
                <mxCell id="123" value="" style="group" parent="120" vertex="1" connectable="0">
                    <mxGeometry x="713" y="246" width="102.99038105676664" height="240" as="geometry"/>
                </mxCell>
                <mxCell id="124" style="edgeStyle=orthogonalEdgeStyle;rounded=0;orthogonalLoop=1;jettySize=auto;html=1;exitX=0.5;exitY=1;exitDx=0;exitDy=0;endArrow=none;endFill=0;" parent="123" source="126" edge="1">
                    <mxGeometry relative="1" as="geometry">
                        <mxPoint x="50" y="220" as="targetPoint"/>
                    </mxGeometry>
                </mxCell>
                <mxCell id="125" style="edgeStyle=orthogonalEdgeStyle;rounded=0;orthogonalLoop=1;jettySize=auto;html=1;exitX=0.5;exitY=0;exitDx=0;exitDy=0;endArrow=none;endFill=0;" parent="123" source="126" edge="1">
                    <mxGeometry relative="1" as="geometry">
                        <mxPoint x="50" as="targetPoint"/>
                    </mxGeometry>
                </mxCell>
                <mxCell id="126" value="" style="ellipse;whiteSpace=wrap;html=1;aspect=fixed;" parent="123" vertex="1">
                    <mxGeometry x="10" y="80" width="80" height="80" as="geometry"/>
                </mxCell>
                <mxCell id="127" value="" style="group" parent="123" vertex="1" connectable="0">
                    <mxGeometry y="110" width="20" height="20" as="geometry"/>
                </mxCell>
                <mxCell id="128" value="" style="endArrow=none;html=1;" parent="127" edge="1">
                    <mxGeometry x="560" y="360" width="50" height="50" as="geometry">
                        <mxPoint y="20" as="sourcePoint"/>
                        <mxPoint x="20" as="targetPoint"/>
                    </mxGeometry>
                </mxCell>
                <mxCell id="129" value="" style="endArrow=none;html=1;" parent="127" edge="1">
                    <mxGeometry x="560" y="360" width="50" height="50" as="geometry">
                        <mxPoint x="20" y="20" as="sourcePoint"/>
                        <mxPoint as="targetPoint"/>
                    </mxGeometry>
                </mxCell>
                <mxCell id="130" value="" style="group;rotation=35;" parent="123" vertex="1" connectable="0">
                    <mxGeometry x="69" y="137" width="20" height="20" as="geometry"/>
                </mxCell>
                <mxCell id="131" value="" style="endArrow=none;html=1;" parent="130" edge="1">
                    <mxGeometry x="241" y="622" width="50" height="50" as="geometry">
                        <mxPoint x="-4" y="12" as="sourcePoint"/>
                        <mxPoint x="24" y="8" as="targetPoint"/>
                    </mxGeometry>
                </mxCell>
                <mxCell id="132" value="" style="endArrow=none;html=1;" parent="130" edge="1">
                    <mxGeometry x="241" y="622" width="50" height="50" as="geometry">
                        <mxPoint x="12" y="24" as="sourcePoint"/>
                        <mxPoint x="8" y="-4" as="targetPoint"/>
                    </mxGeometry>
                </mxCell>
                <mxCell id="133" value="" style="group;rotation=-30;" parent="123" vertex="1" connectable="0">
                    <mxGeometry x="70" y="90" width="30" height="20" as="geometry"/>
                </mxCell>
                <mxCell id="134" value="" style="endArrow=none;html=1;" parent="133" edge="1">
                    <mxGeometry x="675" y="22" width="50" height="50" as="geometry">
                        <mxPoint x="11" y="24" as="sourcePoint"/>
                        <mxPoint x="19" y="-4" as="targetPoint"/>
                    </mxGeometry>
                </mxCell>
                <mxCell id="135" value="" style="endArrow=none;html=1;" parent="133" edge="1">
                    <mxGeometry x="675" y="22" width="50" height="50" as="geometry">
                        <mxPoint x="29" y="14" as="sourcePoint"/>
                        <mxPoint x="1" y="6" as="targetPoint"/>
                    </mxGeometry>
                </mxCell>
                <mxCell id="136" value="" style="endArrow=none;html=1;" parent="133" edge="1">
                    <mxGeometry width="50" height="50" relative="1" as="geometry">
                        <mxPoint x="2" y="17" as="sourcePoint"/>
                        <mxPoint x="28" y="2" as="targetPoint"/>
                    </mxGeometry>
                </mxCell>
                <mxCell id="137" value="" style="group" parent="123" vertex="1" connectable="0">
                    <mxGeometry x="20" y="220" width="60" height="20" as="geometry"/>
                </mxCell>
                <mxCell id="138" value="" style="endArrow=none;html=1;" parent="137" edge="1">
                    <mxGeometry width="50" height="50" relative="1" as="geometry">
                        <mxPoint as="sourcePoint"/>
                        <mxPoint x="60" as="targetPoint"/>
                    </mxGeometry>
                </mxCell>
                <mxCell id="139" value="" style="endArrow=none;html=1;" parent="137" edge="1">
                    <mxGeometry width="50" height="50" relative="1" as="geometry">
                        <mxPoint x="20.000000000000114" y="19.999999999999886" as="sourcePoint"/>
                        <mxPoint x="40" y="20" as="targetPoint"/>
                    </mxGeometry>
                </mxCell>
                <mxCell id="140" value="" style="endArrow=none;html=1;" parent="137" edge="1">
                    <mxGeometry width="50" height="50" relative="1" as="geometry">
                        <mxPoint x="10" y="10" as="sourcePoint"/>
                        <mxPoint x="50" y="10" as="targetPoint"/>
                    </mxGeometry>
                </mxCell>
                <mxCell id="141" value="" style="pointerEvents=1;verticalLabelPosition=bottom;shadow=0;dashed=0;align=center;html=1;verticalAlign=top;shape=mxgraph.electrical.resistors.resistor_2;rotation=90;" parent="120" vertex="1">
                    <mxGeometry x="482" y="135" width="200" height="20" as="geometry"/>
                </mxCell>
                <mxCell id="142" value="" style="triangle;whiteSpace=wrap;html=1;rotation=-90;" parent="120" vertex="1">
                    <mxGeometry x="559.5" y="-12.5" width="45" height="70" as="geometry"/>
                </mxCell>
                <mxCell id="143" value="" style="pointerEvents=1;verticalLabelPosition=bottom;shadow=0;dashed=0;align=center;html=1;verticalAlign=top;shape=mxgraph.electrical.inductors.inductor_3;" parent="120" vertex="1">
                    <mxGeometry y="236" width="190" height="10" as="geometry"/>
                </mxCell>
                <mxCell id="144" value="" style="pointerEvents=1;verticalLabelPosition=bottom;shadow=0;dashed=0;align=center;html=1;verticalAlign=top;shape=mxgraph.electrical.inductors.inductor_3;" parent="120" vertex="1">
                    <mxGeometry x="191" y="236" width="190" height="10" as="geometry"/>
                </mxCell>
                <mxCell id="145" value="" style="group" parent="120" vertex="1" connectable="0">
                    <mxGeometry x="331" y="246" width="102.99038105676664" height="240" as="geometry"/>
                </mxCell>
                <mxCell id="146" style="edgeStyle=orthogonalEdgeStyle;rounded=0;orthogonalLoop=1;jettySize=auto;html=1;exitX=0.5;exitY=1;exitDx=0;exitDy=0;endArrow=none;endFill=0;" parent="145" source="148" edge="1">
                    <mxGeometry relative="1" as="geometry">
                        <mxPoint x="50" y="220" as="targetPoint"/>
                    </mxGeometry>
                </mxCell>
                <mxCell id="147" style="edgeStyle=orthogonalEdgeStyle;rounded=0;orthogonalLoop=1;jettySize=auto;html=1;exitX=0.5;exitY=0;exitDx=0;exitDy=0;endArrow=none;endFill=0;" parent="145" source="148" edge="1">
                    <mxGeometry relative="1" as="geometry">
                        <mxPoint x="50" as="targetPoint"/>
                    </mxGeometry>
                </mxCell>
                <mxCell id="148" value="" style="ellipse;whiteSpace=wrap;html=1;aspect=fixed;" parent="145" vertex="1">
                    <mxGeometry x="10" y="80" width="80" height="80" as="geometry"/>
                </mxCell>
                <mxCell id="149" value="" style="group" parent="145" vertex="1" connectable="0">
                    <mxGeometry y="110" width="20" height="20" as="geometry"/>
                </mxCell>
                <mxCell id="150" value="" style="endArrow=none;html=1;" parent="149" edge="1">
                    <mxGeometry x="560" y="360" width="50" height="50" as="geometry">
                        <mxPoint y="20" as="sourcePoint"/>
                        <mxPoint x="20" as="targetPoint"/>
                    </mxGeometry>
                </mxCell>
                <mxCell id="151" value="" style="endArrow=none;html=1;" parent="149" edge="1">
                    <mxGeometry x="560" y="360" width="50" height="50" as="geometry">
                        <mxPoint x="20" y="20" as="sourcePoint"/>
                        <mxPoint as="targetPoint"/>
                    </mxGeometry>
                </mxCell>
                <mxCell id="152" value="" style="group;rotation=35;" parent="145" vertex="1" connectable="0">
                    <mxGeometry x="69" y="137" width="20" height="20" as="geometry"/>
                </mxCell>
                <mxCell id="153" value="" style="endArrow=none;html=1;" parent="152" edge="1">
                    <mxGeometry x="241" y="622" width="50" height="50" as="geometry">
                        <mxPoint x="-4" y="12" as="sourcePoint"/>
                        <mxPoint x="24" y="8" as="targetPoint"/>
                    </mxGeometry>
                </mxCell>
                <mxCell id="154" value="" style="endArrow=none;html=1;" parent="152" edge="1">
                    <mxGeometry x="241" y="622" width="50" height="50" as="geometry">
                        <mxPoint x="12" y="24" as="sourcePoint"/>
                        <mxPoint x="8" y="-4" as="targetPoint"/>
                    </mxGeometry>
                </mxCell>
                <mxCell id="155" value="" style="group;rotation=-30;" parent="145" vertex="1" connectable="0">
                    <mxGeometry x="70" y="90" width="30" height="20" as="geometry"/>
                </mxCell>
                <mxCell id="156" value="" style="endArrow=none;html=1;" parent="155" edge="1">
                    <mxGeometry x="675" y="22" width="50" height="50" as="geometry">
                        <mxPoint x="11" y="24" as="sourcePoint"/>
                        <mxPoint x="19" y="-4" as="targetPoint"/>
                    </mxGeometry>
                </mxCell>
                <mxCell id="157" value="" style="endArrow=none;html=1;" parent="155" edge="1">
                    <mxGeometry x="675" y="22" width="50" height="50" as="geometry">
                        <mxPoint x="29" y="14" as="sourcePoint"/>
                        <mxPoint x="1" y="6" as="targetPoint"/>
                    </mxGeometry>
                </mxCell>
                <mxCell id="158" value="" style="endArrow=none;html=1;" parent="155" edge="1">
                    <mxGeometry width="50" height="50" relative="1" as="geometry">
                        <mxPoint x="2" y="17" as="sourcePoint"/>
                        <mxPoint x="28" y="2" as="targetPoint"/>
                    </mxGeometry>
                </mxCell>
                <mxCell id="159" value="" style="group" parent="145" vertex="1" connectable="0">
                    <mxGeometry x="20" y="220" width="60" height="20" as="geometry"/>
                </mxCell>
                <mxCell id="160" value="" style="endArrow=none;html=1;" parent="159" edge="1">
                    <mxGeometry width="50" height="50" relative="1" as="geometry">
                        <mxPoint as="sourcePoint"/>
                        <mxPoint x="60" as="targetPoint"/>
                    </mxGeometry>
                </mxCell>
                <mxCell id="161" value="" style="endArrow=none;html=1;" parent="159" edge="1">
                    <mxGeometry width="50" height="50" relative="1" as="geometry">
                        <mxPoint x="20.000000000000114" y="19.999999999999886" as="sourcePoint"/>
                        <mxPoint x="40" y="20" as="targetPoint"/>
                    </mxGeometry>
                </mxCell>
                <mxCell id="162" value="" style="endArrow=none;html=1;" parent="159" edge="1">
                    <mxGeometry width="50" height="50" relative="1" as="geometry">
                        <mxPoint x="10" y="10" as="sourcePoint"/>
                        <mxPoint x="50" y="10" as="targetPoint"/>
                    </mxGeometry>
                </mxCell>
                <mxCell id="163" value="" style="group" parent="1" vertex="1" connectable="0">
                    <mxGeometry x="770" y="752.5" width="815.9903810567666" height="486" as="geometry"/>
                </mxCell>
                <mxCell id="164" value="" style="pointerEvents=1;verticalLabelPosition=bottom;shadow=0;dashed=0;align=center;html=1;verticalAlign=top;shape=mxgraph.electrical.inductors.inductor_3;" parent="163" vertex="1">
                    <mxGeometry x="382" y="236" width="190" height="10" as="geometry"/>
                </mxCell>
                <mxCell id="165" value="" style="pointerEvents=1;verticalLabelPosition=bottom;shadow=0;dashed=0;align=center;html=1;verticalAlign=top;shape=mxgraph.electrical.inductors.inductor_3;" parent="163" vertex="1">
                    <mxGeometry x="573" y="236" width="190" height="10" as="geometry"/>
                </mxCell>
                <mxCell id="166" value="" style="group" parent="163" vertex="1" connectable="0">
                    <mxGeometry x="713" y="246" width="102.99038105676664" height="240" as="geometry"/>
                </mxCell>
                <mxCell id="167" style="edgeStyle=orthogonalEdgeStyle;rounded=0;orthogonalLoop=1;jettySize=auto;html=1;exitX=0.5;exitY=1;exitDx=0;exitDy=0;endArrow=none;endFill=0;" parent="166" source="169" edge="1">
                    <mxGeometry relative="1" as="geometry">
                        <mxPoint x="50" y="220" as="targetPoint"/>
                    </mxGeometry>
                </mxCell>
                <mxCell id="168" style="edgeStyle=orthogonalEdgeStyle;rounded=0;orthogonalLoop=1;jettySize=auto;html=1;exitX=0.5;exitY=0;exitDx=0;exitDy=0;endArrow=none;endFill=0;" parent="166" source="169" edge="1">
                    <mxGeometry relative="1" as="geometry">
                        <mxPoint x="50" as="targetPoint"/>
                    </mxGeometry>
                </mxCell>
                <mxCell id="169" value="" style="ellipse;whiteSpace=wrap;html=1;aspect=fixed;" parent="166" vertex="1">
                    <mxGeometry x="10" y="80" width="80" height="80" as="geometry"/>
                </mxCell>
                <mxCell id="170" value="" style="group" parent="166" vertex="1" connectable="0">
                    <mxGeometry y="110" width="20" height="20" as="geometry"/>
                </mxCell>
                <mxCell id="171" value="" style="endArrow=none;html=1;" parent="170" edge="1">
                    <mxGeometry x="560" y="360" width="50" height="50" as="geometry">
                        <mxPoint y="20" as="sourcePoint"/>
                        <mxPoint x="20" as="targetPoint"/>
                    </mxGeometry>
                </mxCell>
                <mxCell id="172" value="" style="endArrow=none;html=1;" parent="170" edge="1">
                    <mxGeometry x="560" y="360" width="50" height="50" as="geometry">
                        <mxPoint x="20" y="20" as="sourcePoint"/>
                        <mxPoint as="targetPoint"/>
                    </mxGeometry>
                </mxCell>
                <mxCell id="173" value="" style="group;rotation=35;" parent="166" vertex="1" connectable="0">
                    <mxGeometry x="69" y="137" width="20" height="20" as="geometry"/>
                </mxCell>
                <mxCell id="174" value="" style="endArrow=none;html=1;" parent="173" edge="1">
                    <mxGeometry x="241" y="622" width="50" height="50" as="geometry">
                        <mxPoint x="-4" y="12" as="sourcePoint"/>
                        <mxPoint x="24" y="8" as="targetPoint"/>
                    </mxGeometry>
                </mxCell>
                <mxCell id="175" value="" style="endArrow=none;html=1;" parent="173" edge="1">
                    <mxGeometry x="241" y="622" width="50" height="50" as="geometry">
                        <mxPoint x="12" y="24" as="sourcePoint"/>
                        <mxPoint x="8" y="-4" as="targetPoint"/>
                    </mxGeometry>
                </mxCell>
                <mxCell id="176" value="" style="group;rotation=-30;" parent="166" vertex="1" connectable="0">
                    <mxGeometry x="70" y="90" width="30" height="20" as="geometry"/>
                </mxCell>
                <mxCell id="177" value="" style="endArrow=none;html=1;" parent="176" edge="1">
                    <mxGeometry x="675" y="22" width="50" height="50" as="geometry">
                        <mxPoint x="11" y="24" as="sourcePoint"/>
                        <mxPoint x="19" y="-4" as="targetPoint"/>
                    </mxGeometry>
                </mxCell>
                <mxCell id="178" value="" style="endArrow=none;html=1;" parent="176" edge="1">
                    <mxGeometry x="675" y="22" width="50" height="50" as="geometry">
                        <mxPoint x="29" y="14" as="sourcePoint"/>
                        <mxPoint x="1" y="6" as="targetPoint"/>
                    </mxGeometry>
                </mxCell>
                <mxCell id="179" value="" style="endArrow=none;html=1;" parent="176" edge="1">
                    <mxGeometry width="50" height="50" relative="1" as="geometry">
                        <mxPoint x="2" y="17" as="sourcePoint"/>
                        <mxPoint x="28" y="2" as="targetPoint"/>
                    </mxGeometry>
                </mxCell>
                <mxCell id="180" value="" style="group" parent="166" vertex="1" connectable="0">
                    <mxGeometry x="20" y="220" width="60" height="20" as="geometry"/>
                </mxCell>
                <mxCell id="181" value="" style="endArrow=none;html=1;" parent="180" edge="1">
                    <mxGeometry width="50" height="50" relative="1" as="geometry">
                        <mxPoint as="sourcePoint"/>
                        <mxPoint x="60" as="targetPoint"/>
                    </mxGeometry>
                </mxCell>
                <mxCell id="182" value="" style="endArrow=none;html=1;" parent="180" edge="1">
                    <mxGeometry width="50" height="50" relative="1" as="geometry">
                        <mxPoint x="20.000000000000114" y="19.999999999999886" as="sourcePoint"/>
                        <mxPoint x="40" y="20" as="targetPoint"/>
                    </mxGeometry>
                </mxCell>
                <mxCell id="183" value="" style="endArrow=none;html=1;" parent="180" edge="1">
                    <mxGeometry width="50" height="50" relative="1" as="geometry">
                        <mxPoint x="10" y="10" as="sourcePoint"/>
                        <mxPoint x="50" y="10" as="targetPoint"/>
                    </mxGeometry>
                </mxCell>
                <mxCell id="184" value="" style="pointerEvents=1;verticalLabelPosition=bottom;shadow=0;dashed=0;align=center;html=1;verticalAlign=top;shape=mxgraph.electrical.resistors.resistor_2;rotation=90;" parent="163" vertex="1">
                    <mxGeometry x="482" y="135" width="200" height="20" as="geometry"/>
                </mxCell>
                <mxCell id="185" value="" style="triangle;whiteSpace=wrap;html=1;rotation=-90;" parent="163" vertex="1">
                    <mxGeometry x="559.5" y="-12.5" width="45" height="70" as="geometry"/>
                </mxCell>
                <mxCell id="186" value="" style="pointerEvents=1;verticalLabelPosition=bottom;shadow=0;dashed=0;align=center;html=1;verticalAlign=top;shape=mxgraph.electrical.inductors.inductor_3;" parent="163" vertex="1">
                    <mxGeometry y="236" width="190" height="10" as="geometry"/>
                </mxCell>
                <mxCell id="187" value="" style="pointerEvents=1;verticalLabelPosition=bottom;shadow=0;dashed=0;align=center;html=1;verticalAlign=top;shape=mxgraph.electrical.inductors.inductor_3;" parent="163" vertex="1">
                    <mxGeometry x="191" y="236" width="190" height="10" as="geometry"/>
                </mxCell>
                <mxCell id="188" value="" style="group" parent="163" vertex="1" connectable="0">
                    <mxGeometry x="331" y="246" width="102.99038105676664" height="240" as="geometry"/>
                </mxCell>
                <mxCell id="189" style="edgeStyle=orthogonalEdgeStyle;rounded=0;orthogonalLoop=1;jettySize=auto;html=1;exitX=0.5;exitY=1;exitDx=0;exitDy=0;endArrow=none;endFill=0;" parent="188" source="191" edge="1">
                    <mxGeometry relative="1" as="geometry">
                        <mxPoint x="50" y="220" as="targetPoint"/>
                    </mxGeometry>
                </mxCell>
                <mxCell id="190" style="edgeStyle=orthogonalEdgeStyle;rounded=0;orthogonalLoop=1;jettySize=auto;html=1;exitX=0.5;exitY=0;exitDx=0;exitDy=0;endArrow=none;endFill=0;" parent="188" source="191" edge="1">
                    <mxGeometry relative="1" as="geometry">
                        <mxPoint x="50" as="targetPoint"/>
                    </mxGeometry>
                </mxCell>
                <mxCell id="191" value="" style="ellipse;whiteSpace=wrap;html=1;aspect=fixed;" parent="188" vertex="1">
                    <mxGeometry x="10" y="80" width="80" height="80" as="geometry"/>
                </mxCell>
                <mxCell id="192" value="" style="group" parent="188" vertex="1" connectable="0">
                    <mxGeometry y="110" width="20" height="20" as="geometry"/>
                </mxCell>
                <mxCell id="193" value="" style="endArrow=none;html=1;" parent="192" edge="1">
                    <mxGeometry x="560" y="360" width="50" height="50" as="geometry">
                        <mxPoint y="20" as="sourcePoint"/>
                        <mxPoint x="20" as="targetPoint"/>
                    </mxGeometry>
                </mxCell>
                <mxCell id="194" value="" style="endArrow=none;html=1;" parent="192" edge="1">
                    <mxGeometry x="560" y="360" width="50" height="50" as="geometry">
                        <mxPoint x="20" y="20" as="sourcePoint"/>
                        <mxPoint as="targetPoint"/>
                    </mxGeometry>
                </mxCell>
                <mxCell id="195" value="" style="group;rotation=35;" parent="188" vertex="1" connectable="0">
                    <mxGeometry x="69" y="137" width="20" height="20" as="geometry"/>
                </mxCell>
                <mxCell id="196" value="" style="endArrow=none;html=1;" parent="195" edge="1">
                    <mxGeometry x="241" y="622" width="50" height="50" as="geometry">
                        <mxPoint x="-4" y="12" as="sourcePoint"/>
                        <mxPoint x="24" y="8" as="targetPoint"/>
                    </mxGeometry>
                </mxCell>
                <mxCell id="197" value="" style="endArrow=none;html=1;" parent="195" edge="1">
                    <mxGeometry x="241" y="622" width="50" height="50" as="geometry">
                        <mxPoint x="12" y="24" as="sourcePoint"/>
                        <mxPoint x="8" y="-4" as="targetPoint"/>
                    </mxGeometry>
                </mxCell>
                <mxCell id="198" value="" style="group;rotation=-30;" parent="188" vertex="1" connectable="0">
                    <mxGeometry x="70" y="90" width="30" height="20" as="geometry"/>
                </mxCell>
                <mxCell id="199" value="" style="endArrow=none;html=1;" parent="198" edge="1">
                    <mxGeometry x="675" y="22" width="50" height="50" as="geometry">
                        <mxPoint x="11" y="24" as="sourcePoint"/>
                        <mxPoint x="19" y="-4" as="targetPoint"/>
                    </mxGeometry>
                </mxCell>
                <mxCell id="200" value="" style="endArrow=none;html=1;" parent="198" edge="1">
                    <mxGeometry x="675" y="22" width="50" height="50" as="geometry">
                        <mxPoint x="29" y="14" as="sourcePoint"/>
                        <mxPoint x="1" y="6" as="targetPoint"/>
                    </mxGeometry>
                </mxCell>
                <mxCell id="201" value="" style="endArrow=none;html=1;" parent="198" edge="1">
                    <mxGeometry width="50" height="50" relative="1" as="geometry">
                        <mxPoint x="2" y="17" as="sourcePoint"/>
                        <mxPoint x="28" y="2" as="targetPoint"/>
                    </mxGeometry>
                </mxCell>
                <mxCell id="202" value="" style="group" parent="188" vertex="1" connectable="0">
                    <mxGeometry x="20" y="220" width="60" height="20" as="geometry"/>
                </mxCell>
                <mxCell id="203" value="" style="endArrow=none;html=1;" parent="202" edge="1">
                    <mxGeometry width="50" height="50" relative="1" as="geometry">
                        <mxPoint as="sourcePoint"/>
                        <mxPoint x="60" as="targetPoint"/>
                    </mxGeometry>
                </mxCell>
                <mxCell id="204" value="" style="endArrow=none;html=1;" parent="202" edge="1">
                    <mxGeometry width="50" height="50" relative="1" as="geometry">
                        <mxPoint x="20.000000000000114" y="19.999999999999886" as="sourcePoint"/>
                        <mxPoint x="40" y="20" as="targetPoint"/>
                    </mxGeometry>
                </mxCell>
                <mxCell id="205" value="" style="endArrow=none;html=1;" parent="202" edge="1">
                    <mxGeometry width="50" height="50" relative="1" as="geometry">
                        <mxPoint x="10" y="10" as="sourcePoint"/>
                        <mxPoint x="50" y="10" as="targetPoint"/>
                    </mxGeometry>
                </mxCell>
                <mxCell id="206" value="" style="group;rotation=0;" parent="1" vertex="1" connectable="0">
                    <mxGeometry x="630" y="1530" width="102.99038105676664" height="240" as="geometry"/>
                </mxCell>
                <mxCell id="207" style="edgeStyle=orthogonalEdgeStyle;rounded=0;orthogonalLoop=1;jettySize=auto;html=1;exitX=0.5;exitY=1;exitDx=0;exitDy=0;endArrow=none;endFill=0;" parent="206" source="209" edge="1">
                    <mxGeometry as="geometry">
                        <mxPoint x="50" y="240" as="targetPoint"/>
                    </mxGeometry>
                </mxCell>
                <mxCell id="208" style="edgeStyle=orthogonalEdgeStyle;rounded=0;orthogonalLoop=1;jettySize=auto;html=1;exitX=0.5;exitY=0;exitDx=0;exitDy=0;endArrow=none;endFill=0;" parent="206" source="209" edge="1">
                    <mxGeometry as="geometry">
                        <mxPoint x="50" y="-10" as="targetPoint"/>
                    </mxGeometry>
                </mxCell>
                <mxCell id="209" value="" style="ellipse;whiteSpace=wrap;html=1;aspect=fixed;rotation=0;" parent="206" vertex="1">
                    <mxGeometry x="10" y="80" width="80" height="80" as="geometry"/>
                </mxCell>
                <mxCell id="210" value="" style="group;rotation=0;" parent="206" vertex="1" connectable="0">
                    <mxGeometry y="110" width="20" height="20" as="geometry"/>
                </mxCell>
                <mxCell id="211" value="" style="endArrow=none;html=1;" parent="210" edge="1">
                    <mxGeometry x="560" y="360" width="50" height="50" as="geometry">
                        <mxPoint y="20" as="sourcePoint"/>
                        <mxPoint x="20" as="targetPoint"/>
                    </mxGeometry>
                </mxCell>
                <mxCell id="212" value="" style="endArrow=none;html=1;" parent="210" edge="1">
                    <mxGeometry x="560" y="360" width="50" height="50" as="geometry">
                        <mxPoint x="20" y="20" as="sourcePoint"/>
                        <mxPoint as="targetPoint"/>
                    </mxGeometry>
                </mxCell>
                <mxCell id="213" value="" style="group;rotation=35;" parent="206" vertex="1" connectable="0">
                    <mxGeometry x="69" y="137" width="20" height="20" as="geometry"/>
                </mxCell>
                <mxCell id="214" value="" style="endArrow=none;html=1;" parent="213" edge="1">
                    <mxGeometry x="241" y="622" width="50" height="50" as="geometry">
                        <mxPoint x="-4" y="12" as="sourcePoint"/>
                        <mxPoint x="24" y="8" as="targetPoint"/>
                    </mxGeometry>
                </mxCell>
                <mxCell id="215" value="" style="endArrow=none;html=1;" parent="213" edge="1">
                    <mxGeometry x="241" y="622" width="50" height="50" as="geometry">
                        <mxPoint x="12" y="24" as="sourcePoint"/>
                        <mxPoint x="8" y="-4" as="targetPoint"/>
                    </mxGeometry>
                </mxCell>
                <mxCell id="216" value="" style="group;rotation=-30;" parent="206" vertex="1" connectable="0">
                    <mxGeometry x="70" y="90" width="30" height="20" as="geometry"/>
                </mxCell>
                <mxCell id="217" value="" style="endArrow=none;html=1;" parent="216" edge="1">
                    <mxGeometry x="675" y="22" width="50" height="50" as="geometry">
                        <mxPoint x="11" y="24" as="sourcePoint"/>
                        <mxPoint x="19" y="-4" as="targetPoint"/>
                    </mxGeometry>
                </mxCell>
                <mxCell id="218" value="" style="endArrow=none;html=1;" parent="216" edge="1">
                    <mxGeometry x="675" y="22" width="50" height="50" as="geometry">
                        <mxPoint x="29" y="14" as="sourcePoint"/>
                        <mxPoint x="1" y="6" as="targetPoint"/>
                    </mxGeometry>
                </mxCell>
                <mxCell id="219" value="" style="endArrow=none;html=1;" parent="216" edge="1">
                    <mxGeometry width="50" height="50" relative="1" as="geometry">
                        <mxPoint x="2" y="17" as="sourcePoint"/>
                        <mxPoint x="28" y="2" as="targetPoint"/>
                    </mxGeometry>
                </mxCell>
                <mxCell id="220" value="" style="pointerEvents=1;verticalLabelPosition=bottom;shadow=0;dashed=0;align=center;html=1;verticalAlign=top;shape=mxgraph.electrical.inductors.inductor_3;rotation=90;" parent="1" vertex="1">
                    <mxGeometry x="590" y="1858" width="190" height="10" as="geometry"/>
                </mxCell>
                <mxCell id="221" value="" style="pointerEvents=1;verticalLabelPosition=bottom;shadow=0;dashed=0;align=center;html=1;verticalAlign=top;shape=mxgraph.electrical.inductors.inductor_3;" parent="1" vertex="1">
                    <mxGeometry x="680" y="1949" width="190" height="10" as="geometry"/>
                </mxCell>
                <mxCell id="222" value="" style="group" parent="1" vertex="1" connectable="0">
                    <mxGeometry x="821" y="1959" width="102.99038105676664" height="240" as="geometry"/>
                </mxCell>
                <mxCell id="223" style="edgeStyle=orthogonalEdgeStyle;rounded=0;orthogonalLoop=1;jettySize=auto;html=1;exitX=0.5;exitY=1;exitDx=0;exitDy=0;endArrow=none;endFill=0;" parent="222" source="225" edge="1">
                    <mxGeometry relative="1" as="geometry">
                        <mxPoint x="50" y="220" as="targetPoint"/>
                    </mxGeometry>
                </mxCell>
                <mxCell id="224" style="edgeStyle=orthogonalEdgeStyle;rounded=0;orthogonalLoop=1;jettySize=auto;html=1;exitX=0.5;exitY=0;exitDx=0;exitDy=0;endArrow=none;endFill=0;" parent="222" source="225" edge="1">
                    <mxGeometry relative="1" as="geometry">
                        <mxPoint x="50" as="targetPoint"/>
                    </mxGeometry>
                </mxCell>
                <mxCell id="225" value="" style="ellipse;whiteSpace=wrap;html=1;aspect=fixed;" parent="222" vertex="1">
                    <mxGeometry x="10" y="80" width="80" height="80" as="geometry"/>
                </mxCell>
                <mxCell id="226" value="" style="group" parent="222" vertex="1" connectable="0">
                    <mxGeometry y="110" width="20" height="20" as="geometry"/>
                </mxCell>
                <mxCell id="227" value="" style="endArrow=none;html=1;" parent="226" edge="1">
                    <mxGeometry x="560" y="360" width="50" height="50" as="geometry">
                        <mxPoint y="20" as="sourcePoint"/>
                        <mxPoint x="20" as="targetPoint"/>
                    </mxGeometry>
                </mxCell>
                <mxCell id="228" value="" style="endArrow=none;html=1;" parent="226" edge="1">
                    <mxGeometry x="560" y="360" width="50" height="50" as="geometry">
                        <mxPoint x="20" y="20" as="sourcePoint"/>
                        <mxPoint as="targetPoint"/>
                    </mxGeometry>
                </mxCell>
                <mxCell id="229" value="" style="group;rotation=35;" parent="222" vertex="1" connectable="0">
                    <mxGeometry x="69" y="137" width="20" height="20" as="geometry"/>
                </mxCell>
                <mxCell id="230" value="" style="endArrow=none;html=1;" parent="229" edge="1">
                    <mxGeometry x="241" y="622" width="50" height="50" as="geometry">
                        <mxPoint x="-4" y="12" as="sourcePoint"/>
                        <mxPoint x="24" y="8" as="targetPoint"/>
                    </mxGeometry>
                </mxCell>
                <mxCell id="231" value="" style="endArrow=none;html=1;" parent="229" edge="1">
                    <mxGeometry x="241" y="622" width="50" height="50" as="geometry">
                        <mxPoint x="12" y="24" as="sourcePoint"/>
                        <mxPoint x="8" y="-4" as="targetPoint"/>
                    </mxGeometry>
                </mxCell>
                <mxCell id="232" value="" style="group;rotation=-30;" parent="222" vertex="1" connectable="0">
                    <mxGeometry x="70" y="90" width="30" height="20" as="geometry"/>
                </mxCell>
                <mxCell id="233" value="" style="endArrow=none;html=1;" parent="232" edge="1">
                    <mxGeometry x="675" y="22" width="50" height="50" as="geometry">
                        <mxPoint x="11" y="24" as="sourcePoint"/>
                        <mxPoint x="19" y="-4" as="targetPoint"/>
                    </mxGeometry>
                </mxCell>
                <mxCell id="234" value="" style="endArrow=none;html=1;" parent="232" edge="1">
                    <mxGeometry x="675" y="22" width="50" height="50" as="geometry">
                        <mxPoint x="29" y="14" as="sourcePoint"/>
                        <mxPoint x="1" y="6" as="targetPoint"/>
                    </mxGeometry>
                </mxCell>
                <mxCell id="235" value="" style="endArrow=none;html=1;" parent="232" edge="1">
                    <mxGeometry width="50" height="50" relative="1" as="geometry">
                        <mxPoint x="2" y="17" as="sourcePoint"/>
                        <mxPoint x="28" y="2" as="targetPoint"/>
                    </mxGeometry>
                </mxCell>
                <mxCell id="236" value="" style="group" parent="222" vertex="1" connectable="0">
                    <mxGeometry x="20" y="220" width="60" height="20" as="geometry"/>
                </mxCell>
                <mxCell id="237" value="" style="endArrow=none;html=1;" parent="236" edge="1">
                    <mxGeometry width="50" height="50" relative="1" as="geometry">
                        <mxPoint as="sourcePoint"/>
                        <mxPoint x="60" as="targetPoint"/>
                    </mxGeometry>
                </mxCell>
                <mxCell id="238" value="" style="endArrow=none;html=1;" parent="236" edge="1">
                    <mxGeometry width="50" height="50" relative="1" as="geometry">
                        <mxPoint x="20.000000000000114" y="19.999999999999886" as="sourcePoint"/>
                        <mxPoint x="40" y="20" as="targetPoint"/>
                    </mxGeometry>
                </mxCell>
                <mxCell id="239" value="" style="endArrow=none;html=1;" parent="236" edge="1">
                    <mxGeometry width="50" height="50" relative="1" as="geometry">
                        <mxPoint x="10" y="10" as="sourcePoint"/>
                        <mxPoint x="50" y="10" as="targetPoint"/>
                    </mxGeometry>
                </mxCell>
                <mxCell id="240" value="" style="group" parent="1" vertex="1" connectable="0">
                    <mxGeometry x="-81" y="1713.57" width="763" height="485.9999999999998" as="geometry"/>
                </mxCell>
                <mxCell id="241" value="" style="pointerEvents=1;verticalLabelPosition=bottom;shadow=0;dashed=0;align=center;html=1;verticalAlign=top;shape=mxgraph.electrical.inductors.inductor_3;" parent="240" vertex="1">
                    <mxGeometry x="382" y="236" width="190" height="10" as="geometry"/>
                </mxCell>
                <mxCell id="242" value="" style="pointerEvents=1;verticalLabelPosition=bottom;shadow=0;dashed=0;align=center;html=1;verticalAlign=top;shape=mxgraph.electrical.inductors.inductor_3;" parent="240" vertex="1">
                    <mxGeometry x="573" y="236" width="190" height="10" as="geometry"/>
                </mxCell>
                <mxCell id="243" value="" style="pointerEvents=1;verticalLabelPosition=bottom;shadow=0;dashed=0;align=center;html=1;verticalAlign=top;shape=mxgraph.electrical.resistors.resistor_2;rotation=90;" parent="240" vertex="1">
                    <mxGeometry x="482" y="135" width="200" height="20" as="geometry"/>
                </mxCell>
                <mxCell id="244" value="" style="triangle;whiteSpace=wrap;html=1;rotation=-90;" parent="240" vertex="1">
                    <mxGeometry x="559.5" y="-12.5" width="45" height="70" as="geometry"/>
                </mxCell>
                <mxCell id="245" value="" style="pointerEvents=1;verticalLabelPosition=bottom;shadow=0;dashed=0;align=center;html=1;verticalAlign=top;shape=mxgraph.electrical.inductors.inductor_3;" parent="240" vertex="1">
                    <mxGeometry y="236" width="190" height="10" as="geometry"/>
                </mxCell>
                <mxCell id="246" value="" style="pointerEvents=1;verticalLabelPosition=bottom;shadow=0;dashed=0;align=center;html=1;verticalAlign=top;shape=mxgraph.electrical.inductors.inductor_3;" parent="240" vertex="1">
                    <mxGeometry x="191" y="236" width="190" height="10" as="geometry"/>
                </mxCell>
                <mxCell id="247" value="" style="group" parent="240" vertex="1" connectable="0">
                    <mxGeometry x="331" y="246" width="102.99038105676664" height="240" as="geometry"/>
                </mxCell>
                <mxCell id="248" style="edgeStyle=orthogonalEdgeStyle;rounded=0;orthogonalLoop=1;jettySize=auto;html=1;exitX=0.5;exitY=1;exitDx=0;exitDy=0;endArrow=none;endFill=0;" parent="247" source="250" edge="1">
                    <mxGeometry relative="1" as="geometry">
                        <mxPoint x="50" y="220" as="targetPoint"/>
                    </mxGeometry>
                </mxCell>
                <mxCell id="249" style="edgeStyle=orthogonalEdgeStyle;rounded=0;orthogonalLoop=1;jettySize=auto;html=1;exitX=0.5;exitY=0;exitDx=0;exitDy=0;endArrow=none;endFill=0;" parent="247" source="250" edge="1">
                    <mxGeometry relative="1" as="geometry">
                        <mxPoint x="50" as="targetPoint"/>
                    </mxGeometry>
                </mxCell>
                <mxCell id="250" value="" style="ellipse;whiteSpace=wrap;html=1;aspect=fixed;" parent="247" vertex="1">
                    <mxGeometry x="10" y="80" width="80" height="80" as="geometry"/>
                </mxCell>
                <mxCell id="251" value="" style="group" parent="247" vertex="1" connectable="0">
                    <mxGeometry y="110" width="20" height="20" as="geometry"/>
                </mxCell>
                <mxCell id="252" value="" style="endArrow=none;html=1;" parent="251" edge="1">
                    <mxGeometry x="560" y="360" width="50" height="50" as="geometry">
                        <mxPoint y="20" as="sourcePoint"/>
                        <mxPoint x="20" as="targetPoint"/>
                    </mxGeometry>
                </mxCell>
                <mxCell id="253" value="" style="endArrow=none;html=1;" parent="251" edge="1">
                    <mxGeometry x="560" y="360" width="50" height="50" as="geometry">
                        <mxPoint x="20" y="20" as="sourcePoint"/>
                        <mxPoint as="targetPoint"/>
                    </mxGeometry>
                </mxCell>
                <mxCell id="254" value="" style="group;rotation=35;" parent="247" vertex="1" connectable="0">
                    <mxGeometry x="69" y="137" width="20" height="20" as="geometry"/>
                </mxCell>
                <mxCell id="255" value="" style="endArrow=none;html=1;" parent="254" edge="1">
                    <mxGeometry x="241" y="622" width="50" height="50" as="geometry">
                        <mxPoint x="-4" y="12" as="sourcePoint"/>
                        <mxPoint x="24" y="8" as="targetPoint"/>
                    </mxGeometry>
                </mxCell>
                <mxCell id="256" value="" style="endArrow=none;html=1;" parent="254" edge="1">
                    <mxGeometry x="241" y="622" width="50" height="50" as="geometry">
                        <mxPoint x="12" y="24" as="sourcePoint"/>
                        <mxPoint x="8" y="-4" as="targetPoint"/>
                    </mxGeometry>
                </mxCell>
                <mxCell id="257" value="" style="group;rotation=-30;" parent="247" vertex="1" connectable="0">
                    <mxGeometry x="70" y="90" width="30" height="20" as="geometry"/>
                </mxCell>
                <mxCell id="258" value="" style="endArrow=none;html=1;" parent="257" edge="1">
                    <mxGeometry x="675" y="22" width="50" height="50" as="geometry">
                        <mxPoint x="11" y="24" as="sourcePoint"/>
                        <mxPoint x="19" y="-4" as="targetPoint"/>
                    </mxGeometry>
                </mxCell>
                <mxCell id="259" value="" style="endArrow=none;html=1;" parent="257" edge="1">
                    <mxGeometry x="675" y="22" width="50" height="50" as="geometry">
                        <mxPoint x="29" y="14" as="sourcePoint"/>
                        <mxPoint x="1" y="6" as="targetPoint"/>
                    </mxGeometry>
                </mxCell>
                <mxCell id="260" value="" style="endArrow=none;html=1;" parent="257" edge="1">
                    <mxGeometry width="50" height="50" relative="1" as="geometry">
                        <mxPoint x="2" y="17" as="sourcePoint"/>
                        <mxPoint x="28" y="2" as="targetPoint"/>
                    </mxGeometry>
                </mxCell>
                <mxCell id="261" value="" style="group" parent="247" vertex="1" connectable="0">
                    <mxGeometry x="20" y="220" width="60" height="20" as="geometry"/>
                </mxCell>
                <mxCell id="262" value="" style="endArrow=none;html=1;" parent="261" edge="1">
                    <mxGeometry width="50" height="50" relative="1" as="geometry">
                        <mxPoint as="sourcePoint"/>
                        <mxPoint x="60" as="targetPoint"/>
                    </mxGeometry>
                </mxCell>
                <mxCell id="263" value="" style="endArrow=none;html=1;" parent="261" edge="1">
                    <mxGeometry width="50" height="50" relative="1" as="geometry">
                        <mxPoint x="20.000000000000114" y="19.999999999999886" as="sourcePoint"/>
                        <mxPoint x="40" y="20" as="targetPoint"/>
                    </mxGeometry>
                </mxCell>
                <mxCell id="264" value="" style="endArrow=none;html=1;" parent="261" edge="1">
                    <mxGeometry width="50" height="50" relative="1" as="geometry">
                        <mxPoint x="10" y="10" as="sourcePoint"/>
                        <mxPoint x="50" y="10" as="targetPoint"/>
                    </mxGeometry>
                </mxCell>
                <mxCell id="265" value="" style="pointerEvents=1;verticalLabelPosition=bottom;shadow=0;dashed=0;align=center;html=1;verticalAlign=top;shape=mxgraph.electrical.inductors.inductor_3;" parent="1" vertex="1">
                    <mxGeometry x="490" y="1510" width="190" height="10" as="geometry"/>
                </mxCell>
                <mxCell id="266" value="" style="group" parent="1" vertex="1" connectable="0">
                    <mxGeometry x="-1440" y="1550" width="102.99038105676664" height="240" as="geometry"/>
                </mxCell>
                <mxCell id="267" style="edgeStyle=orthogonalEdgeStyle;rounded=0;orthogonalLoop=1;jettySize=auto;html=1;exitX=0.5;exitY=1;exitDx=0;exitDy=0;endArrow=none;endFill=0;" parent="266" source="269" edge="1">
                    <mxGeometry relative="1" as="geometry">
                        <mxPoint x="50" y="220" as="targetPoint"/>
                    </mxGeometry>
                </mxCell>
                <mxCell id="268" style="edgeStyle=orthogonalEdgeStyle;rounded=0;orthogonalLoop=1;jettySize=auto;html=1;exitX=0.5;exitY=0;exitDx=0;exitDy=0;endArrow=none;endFill=0;" parent="266" source="269" edge="1">
                    <mxGeometry relative="1" as="geometry">
                        <mxPoint x="50" as="targetPoint"/>
                    </mxGeometry>
                </mxCell>
                <mxCell id="269" value="" style="ellipse;whiteSpace=wrap;html=1;aspect=fixed;" parent="266" vertex="1">
                    <mxGeometry x="10" y="80" width="80" height="80" as="geometry"/>
                </mxCell>
                <mxCell id="270" value="" style="group" parent="266" vertex="1" connectable="0">
                    <mxGeometry y="110" width="20" height="20" as="geometry"/>
                </mxCell>
                <mxCell id="271" value="" style="endArrow=none;html=1;" parent="270" edge="1">
                    <mxGeometry x="560" y="360" width="50" height="50" as="geometry">
                        <mxPoint y="20" as="sourcePoint"/>
                        <mxPoint x="20" as="targetPoint"/>
                    </mxGeometry>
                </mxCell>
                <mxCell id="272" value="" style="endArrow=none;html=1;" parent="270" edge="1">
                    <mxGeometry x="560" y="360" width="50" height="50" as="geometry">
                        <mxPoint x="20" y="20" as="sourcePoint"/>
                        <mxPoint as="targetPoint"/>
                    </mxGeometry>
                </mxCell>
                <mxCell id="273" value="" style="group;rotation=35;" parent="266" vertex="1" connectable="0">
                    <mxGeometry x="69" y="137" width="20" height="20" as="geometry"/>
                </mxCell>
                <mxCell id="274" value="" style="endArrow=none;html=1;" parent="273" edge="1">
                    <mxGeometry x="241" y="622" width="50" height="50" as="geometry">
                        <mxPoint x="-4" y="12" as="sourcePoint"/>
                        <mxPoint x="24" y="8" as="targetPoint"/>
                    </mxGeometry>
                </mxCell>
                <mxCell id="275" value="" style="endArrow=none;html=1;" parent="273" edge="1">
                    <mxGeometry x="241" y="622" width="50" height="50" as="geometry">
                        <mxPoint x="12" y="24" as="sourcePoint"/>
                        <mxPoint x="8" y="-4" as="targetPoint"/>
                    </mxGeometry>
                </mxCell>
                <mxCell id="276" value="" style="group;rotation=-30;" parent="266" vertex="1" connectable="0">
                    <mxGeometry x="70" y="90" width="30" height="20" as="geometry"/>
                </mxCell>
                <mxCell id="277" value="" style="endArrow=none;html=1;" parent="276" edge="1">
                    <mxGeometry x="675" y="22" width="50" height="50" as="geometry">
                        <mxPoint x="11" y="24" as="sourcePoint"/>
                        <mxPoint x="19" y="-4" as="targetPoint"/>
                    </mxGeometry>
                </mxCell>
                <mxCell id="278" value="" style="endArrow=none;html=1;" parent="276" edge="1">
                    <mxGeometry x="675" y="22" width="50" height="50" as="geometry">
                        <mxPoint x="29" y="14" as="sourcePoint"/>
                        <mxPoint x="1" y="6" as="targetPoint"/>
                    </mxGeometry>
                </mxCell>
                <mxCell id="279" value="" style="endArrow=none;html=1;" parent="276" edge="1">
                    <mxGeometry width="50" height="50" relative="1" as="geometry">
                        <mxPoint x="2" y="17" as="sourcePoint"/>
                        <mxPoint x="28" y="2" as="targetPoint"/>
                    </mxGeometry>
                </mxCell>
                <mxCell id="280" value="" style="group" parent="266" vertex="1" connectable="0">
                    <mxGeometry x="20" y="220" width="60" height="20" as="geometry"/>
                </mxCell>
                <mxCell id="281" value="" style="endArrow=none;html=1;" parent="280" edge="1">
                    <mxGeometry width="50" height="50" relative="1" as="geometry">
                        <mxPoint as="sourcePoint"/>
                        <mxPoint x="60" as="targetPoint"/>
                    </mxGeometry>
                </mxCell>
                <mxCell id="282" value="" style="endArrow=none;html=1;" parent="280" edge="1">
                    <mxGeometry width="50" height="50" relative="1" as="geometry">
                        <mxPoint x="20.000000000000114" y="19.999999999999886" as="sourcePoint"/>
                        <mxPoint x="40" y="20" as="targetPoint"/>
                    </mxGeometry>
                </mxCell>
                <mxCell id="283" value="" style="endArrow=none;html=1;" parent="280" edge="1">
                    <mxGeometry width="50" height="50" relative="1" as="geometry">
                        <mxPoint x="10" y="10" as="sourcePoint"/>
                        <mxPoint x="50" y="10" as="targetPoint"/>
                    </mxGeometry>
                </mxCell>
                <mxCell id="284" style="edgeStyle=orthogonalEdgeStyle;rounded=0;orthogonalLoop=1;jettySize=auto;html=1;exitX=0.5;exitY=1;exitDx=0;exitDy=0;endArrow=none;endFill=0;" parent="1" source="286" edge="1">
                    <mxGeometry x="-1200" y="1570" as="geometry">
                        <mxPoint x="-1149.9999999999995" y="1790" as="targetPoint"/>
                    </mxGeometry>
                </mxCell>
                <mxCell id="285" style="edgeStyle=orthogonalEdgeStyle;rounded=0;orthogonalLoop=1;jettySize=auto;html=1;exitX=0.5;exitY=0;exitDx=0;exitDy=0;endArrow=none;endFill=0;" parent="1" source="286" edge="1">
                    <mxGeometry x="-1200" y="1570" as="geometry">
                        <mxPoint x="-1149.9999999999995" y="1570" as="targetPoint"/>
                    </mxGeometry>
                </mxCell>
                <mxCell id="286" value="" style="ellipse;whiteSpace=wrap;html=1;aspect=fixed;" parent="1" vertex="1">
                    <mxGeometry x="-1190" y="1650" width="80" height="80" as="geometry"/>
                </mxCell>
                <mxCell id="287" value="" style="group;rotation=35;" parent="1" vertex="1" connectable="0">
                    <mxGeometry x="-1131" y="1707" width="20" height="20" as="geometry"/>
                </mxCell>
                <mxCell id="288" value="" style="endArrow=none;html=1;" parent="287" edge="1">
                    <mxGeometry x="241" y="622" width="50" height="50" as="geometry">
                        <mxPoint x="-4" y="12" as="sourcePoint"/>
                        <mxPoint x="24" y="8" as="targetPoint"/>
                    </mxGeometry>
                </mxCell>
                <mxCell id="289" value="" style="endArrow=none;html=1;" parent="287" edge="1">
                    <mxGeometry x="241" y="622" width="50" height="50" as="geometry">
                        <mxPoint x="12" y="24" as="sourcePoint"/>
                        <mxPoint x="8" y="-4" as="targetPoint"/>
                    </mxGeometry>
                </mxCell>
                <mxCell id="290" value="" style="group;rotation=-30;" parent="1" vertex="1" connectable="0">
                    <mxGeometry x="-1130" y="1660" width="30" height="20" as="geometry"/>
                </mxCell>
                <mxCell id="291" value="" style="endArrow=none;html=1;" parent="290" edge="1">
                    <mxGeometry x="675" y="22" width="50" height="50" as="geometry">
                        <mxPoint x="11" y="24" as="sourcePoint"/>
                        <mxPoint x="19" y="-4" as="targetPoint"/>
                    </mxGeometry>
                </mxCell>
                <mxCell id="292" value="" style="endArrow=none;html=1;" parent="290" edge="1">
                    <mxGeometry x="675" y="22" width="50" height="50" as="geometry">
                        <mxPoint x="29" y="14" as="sourcePoint"/>
                        <mxPoint x="1" y="6" as="targetPoint"/>
                    </mxGeometry>
                </mxCell>
                <mxCell id="293" value="" style="endArrow=none;html=1;" parent="290" edge="1">
                    <mxGeometry width="50" height="50" relative="1" as="geometry">
                        <mxPoint x="2" y="17" as="sourcePoint"/>
                        <mxPoint x="28" y="2" as="targetPoint"/>
                    </mxGeometry>
                </mxCell>
                <mxCell id="294" value="" style="group" parent="1" vertex="1" connectable="0">
                    <mxGeometry x="-1180" y="1790" width="60" height="20" as="geometry"/>
                </mxCell>
                <mxCell id="295" value="" style="endArrow=none;html=1;" parent="294" edge="1">
                    <mxGeometry width="50" height="50" relative="1" as="geometry">
                        <mxPoint as="sourcePoint"/>
                        <mxPoint x="60" as="targetPoint"/>
                    </mxGeometry>
                </mxCell>
                <mxCell id="296" value="" style="endArrow=none;html=1;" parent="294" edge="1">
                    <mxGeometry width="50" height="50" relative="1" as="geometry">
                        <mxPoint x="20.000000000000114" y="19.999999999999886" as="sourcePoint"/>
                        <mxPoint x="40" y="20" as="targetPoint"/>
                    </mxGeometry>
                </mxCell>
                <mxCell id="297" value="" style="endArrow=none;html=1;" parent="294" edge="1">
                    <mxGeometry width="50" height="50" relative="1" as="geometry">
                        <mxPoint x="10" y="10" as="sourcePoint"/>
                        <mxPoint x="50" y="10" as="targetPoint"/>
                    </mxGeometry>
                </mxCell>
                <mxCell id="298" value="" style="group" parent="1" vertex="1" connectable="0">
                    <mxGeometry x="-525" y="1674" width="90" height="70" as="geometry"/>
                </mxCell>
                <mxCell id="299" value="" style="endArrow=none;html=1;" parent="298" edge="1">
                    <mxGeometry x="1970" y="1260" width="175" height="175" as="geometry">
                        <mxPoint x="10" y="70" as="sourcePoint"/>
                        <mxPoint x="80" as="targetPoint"/>
                    </mxGeometry>
                </mxCell>
                <mxCell id="300" value="" style="endArrow=none;html=1;" parent="298" edge="1">
                    <mxGeometry x="1970" y="1260" width="175" height="175" as="geometry">
                        <mxPoint x="80" y="70" as="sourcePoint"/>
                        <mxPoint x="10" as="targetPoint"/>
                    </mxGeometry>
                </mxCell>
                <mxCell id="301" value="" style="endArrow=none;html=1;" parent="298" edge="1">
                    <mxGeometry x="-550" y="1710" width="50" height="50" as="geometry">
                        <mxPoint y="34.76" as="sourcePoint"/>
                        <mxPoint x="90" y="34.76" as="targetPoint"/>
                    </mxGeometry>
                </mxCell>
                <mxCell id="302" value="" style="pointerEvents=1;verticalLabelPosition=bottom;shadow=0;dashed=0;align=center;html=1;verticalAlign=top;shape=mxgraph.electrical.inductors.inductor_3;" parent="1" vertex="1">
                    <mxGeometry x="-860" y="1600" width="190" height="10" as="geometry"/>
                </mxCell>
                <mxCell id="303" value="" style="pointerEvents=1;verticalLabelPosition=bottom;shadow=0;dashed=0;align=center;html=1;verticalAlign=top;shape=mxgraph.electrical.inductors.inductor_3;" parent="1" vertex="1">
                    <mxGeometry x="-670" y="1600" width="190" height="10" as="geometry"/>
                </mxCell>
                <mxCell id="304" value="" style="endArrow=none;html=1;exitX=1;exitY=1;exitDx=0;exitDy=0;exitPerimeter=0;entryX=0;entryY=1;entryDx=0;entryDy=0;entryPerimeter=0;rounded=0;" parent="1" source="303" target="302" edge="1">
                    <mxGeometry width="50" height="50" relative="1" as="geometry">
                        <mxPoint x="-370" y="1620" as="sourcePoint"/>
                        <mxPoint x="-820" y="1680" as="targetPoint"/>
                        <Array as="points">
                            <mxPoint x="-480" y="1800"/>
                            <mxPoint x="-670" y="1800"/>
                            <mxPoint x="-860" y="1800"/>
                        </Array>
                    </mxGeometry>
                </mxCell>
                <mxCell id="305" value="" style="endArrow=none;html=1;exitX=1;exitY=1;exitDx=0;exitDy=0;exitPerimeter=0;" parent="1" source="302" edge="1">
                    <mxGeometry width="50" height="50" relative="1" as="geometry">
                        <mxPoint x="-770" y="1580" as="sourcePoint"/>
                        <mxPoint x="-669.9999999999995" y="1530" as="targetPoint"/>
                    </mxGeometry>
                </mxCell>
                <mxCell id="306" value="" style="endArrow=none;html=1;" parent="1" edge="1">
                    <mxGeometry x="1064" y="2933" width="175" height="175" as="geometry">
                        <mxPoint x="-896" y="1743" as="sourcePoint"/>
                        <mxPoint x="-826" y="1673" as="targetPoint"/>
                    </mxGeometry>
                </mxCell>
                <mxCell id="307" value="" style="endArrow=none;html=1;" parent="1" edge="1">
                    <mxGeometry x="1064" y="2933" width="175" height="175" as="geometry">
                        <mxPoint x="-826" y="1743" as="sourcePoint"/>
                        <mxPoint x="-896" y="1673" as="targetPoint"/>
                    </mxGeometry>
                </mxCell>
                <mxCell id="308" value="" style="endArrow=none;html=1;" parent="1" edge="1">
                    <mxGeometry width="50" height="50" relative="1" as="geometry">
                        <mxPoint x="-669.9999999999995" y="1870" as="sourcePoint"/>
                        <mxPoint x="-669.9999999999995" y="1800" as="targetPoint"/>
                    </mxGeometry>
                </mxCell>
                <mxCell id="309" value="" style="group" parent="1" vertex="1" connectable="0">
                    <mxGeometry x="-750" y="1713.57" width="60" height="60" as="geometry"/>
                </mxCell>
                <mxCell id="310" value="" style="ellipse;whiteSpace=wrap;html=1;aspect=fixed;" parent="309" vertex="1">
                    <mxGeometry width="60" height="60" as="geometry"/>
                </mxCell>
                <mxCell id="311" value="" style="endArrow=none;html=1;exitX=0;exitY=1;exitDx=0;exitDy=0;entryX=1;entryY=0;entryDx=0;entryDy=0;" parent="309" source="310" target="310" edge="1">
                    <mxGeometry width="50" height="50" relative="1" as="geometry">
                        <mxPoint x="10" y="56" as="sourcePoint"/>
                        <mxPoint x="60" y="6" as="targetPoint"/>
                    </mxGeometry>
                </mxCell>
                <mxCell id="312" value="" style="endArrow=none;html=1;entryX=0;entryY=0;entryDx=0;entryDy=0;exitX=1;exitY=1;exitDx=0;exitDy=0;" parent="309" source="310" target="310" edge="1">
                    <mxGeometry width="50" height="50" relative="1" as="geometry">
                        <mxPoint x="60" y="36" as="sourcePoint"/>
                        <mxPoint x="110" y="-14" as="targetPoint"/>
                    </mxGeometry>
                </mxCell>
                <mxCell id="313" value="&lt;span style=&quot;font-family: &amp;#34;cambria math&amp;#34;&quot;&gt;&lt;font style=&quot;font-size: 37px&quot;&gt;Φ&lt;/font&gt;&lt;/span&gt;&lt;span style=&quot;font-size: 20pt ; font-family: &amp;#34;cambria math&amp;#34;&quot;&gt;ex&lt;/span&gt;" style="text;html=1;strokeColor=none;fillColor=none;align=center;verticalAlign=middle;whiteSpace=wrap;rounded=0;" parent="1" vertex="1">
                    <mxGeometry x="-690" y="1720" width="80" height="70" as="geometry"/>
                </mxCell>
                <mxCell id="314" value="" style="group" parent="1" vertex="1" connectable="0">
                    <mxGeometry x="-869" y="2230" width="90" height="70" as="geometry"/>
                </mxCell>
                <mxCell id="315" value="" style="endArrow=none;html=1;" parent="314" edge="1">
                    <mxGeometry x="1970" y="1260" width="175" height="175" as="geometry">
                        <mxPoint x="10" y="70" as="sourcePoint"/>
                        <mxPoint x="80" as="targetPoint"/>
                    </mxGeometry>
                </mxCell>
                <mxCell id="316" value="" style="endArrow=none;html=1;" parent="314" edge="1">
                    <mxGeometry x="1970" y="1260" width="175" height="175" as="geometry">
                        <mxPoint x="80" y="70" as="sourcePoint"/>
                        <mxPoint x="10" as="targetPoint"/>
                    </mxGeometry>
                </mxCell>
                <mxCell id="317" value="" style="endArrow=none;html=1;" parent="314" edge="1">
                    <mxGeometry x="-550" y="1710" width="50" height="50" as="geometry">
                        <mxPoint y="34.76" as="sourcePoint"/>
                        <mxPoint x="90" y="34.76" as="targetPoint"/>
                    </mxGeometry>
                </mxCell>
                <mxCell id="318" value="" style="pointerEvents=1;verticalLabelPosition=bottom;shadow=0;dashed=0;align=center;html=1;verticalAlign=top;shape=mxgraph.electrical.inductors.inductor_3;" parent="1" vertex="1">
                    <mxGeometry x="-1204" y="2210" width="190" height="10" as="geometry"/>
                </mxCell>
                <mxCell id="319" value="" style="pointerEvents=1;verticalLabelPosition=bottom;shadow=0;dashed=0;align=center;html=1;verticalAlign=top;shape=mxgraph.electrical.inductors.inductor_3;" parent="1" vertex="1">
                    <mxGeometry x="-1014" y="2210" width="190" height="10" as="geometry"/>
                </mxCell>
                <mxCell id="320" value="" style="endArrow=none;html=1;exitX=1;exitY=1;exitDx=0;exitDy=0;exitPerimeter=0;entryX=0;entryY=1;entryDx=0;entryDy=0;entryPerimeter=0;rounded=0;" parent="1" source="319" target="318" edge="1">
                    <mxGeometry width="50" height="50" relative="1" as="geometry">
                        <mxPoint x="-714" y="2230" as="sourcePoint"/>
                        <mxPoint x="-1164" y="2290" as="targetPoint"/>
                        <Array as="points">
                            <mxPoint x="-824" y="2410"/>
                            <mxPoint x="-1014" y="2410"/>
                            <mxPoint x="-1204" y="2410"/>
                        </Array>
                    </mxGeometry>
                </mxCell>
                <mxCell id="321" value="" style="endArrow=none;html=1;exitX=1;exitY=1;exitDx=0;exitDy=0;exitPerimeter=0;" parent="1" source="318" edge="1">
                    <mxGeometry width="50" height="50" relative="1" as="geometry">
                        <mxPoint x="-1114" y="2190" as="sourcePoint"/>
                        <mxPoint x="-1014" y="2140" as="targetPoint"/>
                    </mxGeometry>
                </mxCell>
                <mxCell id="322" value="" style="endArrow=none;html=1;" parent="1" edge="1">
                    <mxGeometry width="50" height="50" relative="1" as="geometry">
                        <mxPoint x="-1014" y="2480" as="sourcePoint"/>
                        <mxPoint x="-1014" y="2410" as="targetPoint"/>
                    </mxGeometry>
                </mxCell>
                <mxCell id="323" value="" style="group" parent="1" vertex="1" connectable="0">
                    <mxGeometry x="-1094" y="2323.5699999999997" width="60" height="60" as="geometry"/>
                </mxCell>
                <mxCell id="324" value="" style="ellipse;whiteSpace=wrap;html=1;aspect=fixed;" parent="323" vertex="1">
                    <mxGeometry width="60" height="60" as="geometry"/>
                </mxCell>
                <mxCell id="325" value="" style="endArrow=none;html=1;exitX=0;exitY=1;exitDx=0;exitDy=0;entryX=1;entryY=0;entryDx=0;entryDy=0;" parent="323" source="324" target="324" edge="1">
                    <mxGeometry width="50" height="50" relative="1" as="geometry">
                        <mxPoint x="10" y="56" as="sourcePoint"/>
                        <mxPoint x="60" y="6" as="targetPoint"/>
                    </mxGeometry>
                </mxCell>
                <mxCell id="326" value="" style="endArrow=none;html=1;entryX=0;entryY=0;entryDx=0;entryDy=0;exitX=1;exitY=1;exitDx=0;exitDy=0;" parent="323" source="324" target="324" edge="1">
                    <mxGeometry width="50" height="50" relative="1" as="geometry">
                        <mxPoint x="60" y="36" as="sourcePoint"/>
                        <mxPoint x="110" y="-14" as="targetPoint"/>
                    </mxGeometry>
                </mxCell>
                <mxCell id="327" value="&lt;span style=&quot;font-family: &amp;#34;cambria math&amp;#34;&quot;&gt;&lt;font style=&quot;font-size: 37px&quot;&gt;Φ&lt;/font&gt;&lt;/span&gt;&lt;span style=&quot;font-size: 20pt ; font-family: &amp;#34;cambria math&amp;#34;&quot;&gt;ex&lt;/span&gt;" style="text;html=1;strokeColor=none;fillColor=none;align=center;verticalAlign=middle;whiteSpace=wrap;rounded=0;" parent="1" vertex="1">
                    <mxGeometry x="-1034" y="2330" width="80" height="70" as="geometry"/>
                </mxCell>
                <mxCell id="328" value="" style="group" parent="1" vertex="1" connectable="0">
                    <mxGeometry x="-859" y="2330" width="70" height="70" as="geometry"/>
                </mxCell>
                <mxCell id="329" value="" style="endArrow=none;html=1;" parent="328" edge="1">
                    <mxGeometry x="1960" y="1260" width="175" height="175" as="geometry">
                        <mxPoint y="70" as="sourcePoint"/>
                        <mxPoint x="70" as="targetPoint"/>
                    </mxGeometry>
                </mxCell>
                <mxCell id="330" value="" style="endArrow=none;html=1;" parent="328" edge="1">
                    <mxGeometry x="1960" y="1260" width="175" height="175" as="geometry">
                        <mxPoint x="70" y="70" as="sourcePoint"/>
                        <mxPoint as="targetPoint"/>
                    </mxGeometry>
                </mxCell>
                <mxCell id="331" value="" style="group" parent="1" vertex="1" connectable="0">
                    <mxGeometry x="-1239" y="2280" width="70" height="70" as="geometry"/>
                </mxCell>
                <mxCell id="332" value="" style="endArrow=none;html=1;" parent="331" edge="1">
                    <mxGeometry x="1960" y="1260" width="175" height="175" as="geometry">
                        <mxPoint y="70" as="sourcePoint"/>
                        <mxPoint x="70" as="targetPoint"/>
                    </mxGeometry>
                </mxCell>
                <mxCell id="333" value="" style="endArrow=none;html=1;" parent="331" edge="1">
                    <mxGeometry x="1960" y="1260" width="175" height="175" as="geometry">
                        <mxPoint x="70" y="70" as="sourcePoint"/>
                        <mxPoint as="targetPoint"/>
                    </mxGeometry>
                </mxCell>
                <mxCell id="335" value="" style="pointerEvents=1;verticalLabelPosition=bottom;shadow=0;dashed=0;align=center;html=1;verticalAlign=top;shape=mxgraph.electrical.inductors.inductor_3;" vertex="1" parent="1">
                    <mxGeometry x="222" y="2566" width="190" height="10" as="geometry"/>
                </mxCell>
                <mxCell id="336" value="" style="pointerEvents=1;verticalLabelPosition=bottom;shadow=0;dashed=0;align=center;html=1;verticalAlign=top;shape=mxgraph.electrical.inductors.inductor_3;" vertex="1" parent="1">
                    <mxGeometry x="413" y="2566" width="190" height="10" as="geometry"/>
                </mxCell>
                <mxCell id="337" value="" style="pointerEvents=1;verticalLabelPosition=bottom;shadow=0;dashed=0;align=center;html=1;verticalAlign=top;shape=mxgraph.electrical.resistors.resistor_2;rotation=90;" vertex="1" parent="1">
                    <mxGeometry x="322" y="2465" width="200" height="20" as="geometry"/>
                </mxCell>
                <mxCell id="338" value="" style="triangle;whiteSpace=wrap;html=1;rotation=-90;" vertex="1" parent="1">
                    <mxGeometry x="399.5" y="2317.5" width="45" height="70" as="geometry"/>
                </mxCell>
                <mxCell id="339" value="" style="pointerEvents=1;verticalLabelPosition=bottom;shadow=0;dashed=0;align=center;html=1;verticalAlign=top;shape=mxgraph.electrical.inductors.inductor_3;" vertex="1" parent="1">
                    <mxGeometry x="520" y="2830" width="200" height="10" as="geometry"/>
                </mxCell>
                <mxCell id="340" value="" style="pointerEvents=1;verticalLabelPosition=bottom;shadow=0;dashed=0;align=center;html=1;verticalAlign=top;shape=mxgraph.electrical.inductors.inductor_3;" vertex="1" parent="1">
                    <mxGeometry x="31" y="2566" width="190" height="10" as="geometry"/>
                </mxCell>
                <mxCell id="341" value="" style="group" vertex="1" connectable="0" parent="1">
                    <mxGeometry x="171" y="2576" width="102.99038105676664" height="240" as="geometry"/>
                </mxCell>
                <mxCell id="342" style="edgeStyle=orthogonalEdgeStyle;rounded=0;orthogonalLoop=1;jettySize=auto;html=1;exitX=0.5;exitY=1;exitDx=0;exitDy=0;endArrow=none;endFill=0;" edge="1" parent="341" source="344">
                    <mxGeometry relative="1" as="geometry">
                        <mxPoint x="50" y="220" as="targetPoint"/>
                    </mxGeometry>
                </mxCell>
                <mxCell id="343" style="edgeStyle=orthogonalEdgeStyle;rounded=0;orthogonalLoop=1;jettySize=auto;html=1;exitX=0.5;exitY=0;exitDx=0;exitDy=0;endArrow=none;endFill=0;" edge="1" parent="341" source="344">
                    <mxGeometry relative="1" as="geometry">
                        <mxPoint x="50" as="targetPoint"/>
                    </mxGeometry>
                </mxCell>
                <mxCell id="344" value="" style="ellipse;whiteSpace=wrap;html=1;aspect=fixed;" vertex="1" parent="341">
                    <mxGeometry x="10" y="80" width="80" height="80" as="geometry"/>
                </mxCell>
                <mxCell id="345" value="" style="group" vertex="1" connectable="0" parent="341">
                    <mxGeometry y="110" width="20" height="20" as="geometry"/>
                </mxCell>
                <mxCell id="346" value="" style="endArrow=none;html=1;" edge="1" parent="345">
                    <mxGeometry x="560" y="360" width="50" height="50" as="geometry">
                        <mxPoint y="20" as="sourcePoint"/>
                        <mxPoint x="20" as="targetPoint"/>
                    </mxGeometry>
                </mxCell>
                <mxCell id="347" value="" style="endArrow=none;html=1;" edge="1" parent="345">
                    <mxGeometry x="560" y="360" width="50" height="50" as="geometry">
                        <mxPoint x="20" y="20" as="sourcePoint"/>
                        <mxPoint as="targetPoint"/>
                    </mxGeometry>
                </mxCell>
                <mxCell id="348" value="" style="group;rotation=35;" vertex="1" connectable="0" parent="341">
                    <mxGeometry x="69" y="137" width="20" height="20" as="geometry"/>
                </mxCell>
                <mxCell id="349" value="" style="endArrow=none;html=1;" edge="1" parent="348">
                    <mxGeometry x="241" y="622" width="50" height="50" as="geometry">
                        <mxPoint x="-4" y="12" as="sourcePoint"/>
                        <mxPoint x="24" y="8" as="targetPoint"/>
                    </mxGeometry>
                </mxCell>
                <mxCell id="350" value="" style="endArrow=none;html=1;" edge="1" parent="348">
                    <mxGeometry x="241" y="622" width="50" height="50" as="geometry">
                        <mxPoint x="12" y="24" as="sourcePoint"/>
                        <mxPoint x="8" y="-4" as="targetPoint"/>
                    </mxGeometry>
                </mxCell>
                <mxCell id="351" value="" style="group;rotation=-30;" vertex="1" connectable="0" parent="341">
                    <mxGeometry x="70" y="90" width="30" height="20" as="geometry"/>
                </mxCell>
                <mxCell id="352" value="" style="endArrow=none;html=1;" edge="1" parent="351">
                    <mxGeometry x="675" y="22" width="50" height="50" as="geometry">
                        <mxPoint x="11" y="24" as="sourcePoint"/>
                        <mxPoint x="19" y="-4" as="targetPoint"/>
                    </mxGeometry>
                </mxCell>
                <mxCell id="353" value="" style="endArrow=none;html=1;" edge="1" parent="351">
                    <mxGeometry x="675" y="22" width="50" height="50" as="geometry">
                        <mxPoint x="29" y="14" as="sourcePoint"/>
                        <mxPoint x="1" y="6" as="targetPoint"/>
                    </mxGeometry>
                </mxCell>
                <mxCell id="354" value="" style="endArrow=none;html=1;" edge="1" parent="351">
                    <mxGeometry width="50" height="50" relative="1" as="geometry">
                        <mxPoint x="2" y="17" as="sourcePoint"/>
                        <mxPoint x="28" y="2" as="targetPoint"/>
                    </mxGeometry>
                </mxCell>
                <mxCell id="355" value="" style="group" vertex="1" connectable="0" parent="341">
                    <mxGeometry x="20" y="220" width="60" height="20" as="geometry"/>
                </mxCell>
                <mxCell id="356" value="" style="endArrow=none;html=1;" edge="1" parent="355">
                    <mxGeometry width="50" height="50" relative="1" as="geometry">
                        <mxPoint as="sourcePoint"/>
                        <mxPoint x="60" as="targetPoint"/>
                    </mxGeometry>
                </mxCell>
                <mxCell id="357" value="" style="endArrow=none;html=1;" edge="1" parent="355">
                    <mxGeometry width="50" height="50" relative="1" as="geometry">
                        <mxPoint x="20.000000000000114" y="19.999999999999886" as="sourcePoint"/>
                        <mxPoint x="40" y="20" as="targetPoint"/>
                    </mxGeometry>
                </mxCell>
                <mxCell id="358" value="" style="endArrow=none;html=1;" edge="1" parent="355">
                    <mxGeometry width="50" height="50" relative="1" as="geometry">
                        <mxPoint x="10" y="10" as="sourcePoint"/>
                        <mxPoint x="50" y="10" as="targetPoint"/>
                    </mxGeometry>
                </mxCell>
                <mxCell id="359" value="" style="pointerEvents=1;verticalLabelPosition=bottom;shadow=0;dashed=0;align=center;html=1;verticalAlign=top;shape=mxgraph.electrical.inductors.inductor_3;" vertex="1" parent="1">
                    <mxGeometry x="720" y="2830" width="200" height="10" as="geometry"/>
                </mxCell>
                <mxCell id="360" value="" style="endArrow=none;html=1;" edge="1" parent="1">
                    <mxGeometry width="50" height="50" relative="1" as="geometry">
                        <mxPoint x="520" y="3040" as="sourcePoint"/>
                        <mxPoint x="520" y="2840" as="targetPoint"/>
                    </mxGeometry>
                </mxCell>
                <mxCell id="361" value="" style="endArrow=none;html=1;" edge="1" parent="1">
                    <mxGeometry width="50" height="50" relative="1" as="geometry">
                        <mxPoint x="920" y="3040" as="sourcePoint"/>
                        <mxPoint x="920" y="2840" as="targetPoint"/>
                    </mxGeometry>
                </mxCell>
                <mxCell id="362" value="" style="endArrow=none;html=1;" edge="1" parent="1">
                    <mxGeometry width="50" height="50" relative="1" as="geometry">
                        <mxPoint x="520" y="3040" as="sourcePoint"/>
                        <mxPoint x="920" y="3040" as="targetPoint"/>
                    </mxGeometry>
                </mxCell>
                <mxCell id="363" value="" style="endArrow=none;html=1;" edge="1" parent="1">
                    <mxGeometry width="50" height="50" relative="1" as="geometry">
                        <mxPoint x="490" y="2980" as="sourcePoint"/>
                        <mxPoint x="550" y="2920" as="targetPoint"/>
                    </mxGeometry>
                </mxCell>
                <mxCell id="364" value="" style="endArrow=none;html=1;" edge="1" parent="1">
                    <mxGeometry width="50" height="50" relative="1" as="geometry">
                        <mxPoint x="550" y="2980" as="sourcePoint"/>
                        <mxPoint x="490" y="2920" as="targetPoint"/>
                    </mxGeometry>
                </mxCell>
                <mxCell id="365" value="" style="endArrow=none;html=1;" edge="1" parent="1">
                    <mxGeometry width="50" height="50" relative="1" as="geometry">
                        <mxPoint x="890" y="3020" as="sourcePoint"/>
                        <mxPoint x="950" y="2960" as="targetPoint"/>
                    </mxGeometry>
                </mxCell>
                <mxCell id="366" value="" style="endArrow=none;html=1;" edge="1" parent="1">
                    <mxGeometry width="50" height="50" relative="1" as="geometry">
                        <mxPoint x="950" y="3020" as="sourcePoint"/>
                        <mxPoint x="890" y="2960" as="targetPoint"/>
                    </mxGeometry>
                </mxCell>
                <mxCell id="367" value="" style="endArrow=none;html=1;" edge="1" parent="1">
                    <mxGeometry width="50" height="50" relative="1" as="geometry">
                        <mxPoint x="889.9999999999995" y="2930" as="sourcePoint"/>
                        <mxPoint x="949.9999999999995" y="2870" as="targetPoint"/>
                    </mxGeometry>
                </mxCell>
                <mxCell id="368" value="" style="endArrow=none;html=1;" edge="1" parent="1">
                    <mxGeometry width="50" height="50" relative="1" as="geometry">
                        <mxPoint x="949.9999999999995" y="2930" as="sourcePoint"/>
                        <mxPoint x="889.9999999999995" y="2870" as="targetPoint"/>
                    </mxGeometry>
                </mxCell>
                <mxCell id="369" value="" style="endArrow=none;html=1;" edge="1" parent="1">
                    <mxGeometry width="50" height="50" relative="1" as="geometry">
                        <mxPoint x="880" y="2900" as="sourcePoint"/>
                        <mxPoint x="960" y="2900" as="targetPoint"/>
                    </mxGeometry>
                </mxCell>
                <mxCell id="370" value="" style="endArrow=none;html=1;" edge="1" parent="1">
                    <mxGeometry width="50" height="50" relative="1" as="geometry">
                        <mxPoint x="720" y="3180" as="sourcePoint"/>
                        <mxPoint x="720" y="3040" as="targetPoint"/>
                    </mxGeometry>
                </mxCell>
                <mxCell id="371" value="" style="endArrow=none;html=1;entryX=0;entryY=1;entryDx=0;entryDy=0;entryPerimeter=0;rounded=0;" edge="1" parent="1" target="372">
                    <mxGeometry width="50" height="50" relative="1" as="geometry">
                        <mxPoint x="719.17" y="2840" as="sourcePoint"/>
                        <mxPoint x="719" y="2600" as="targetPoint"/>
                        <Array as="points">
                            <mxPoint x="719" y="2600"/>
                        </Array>
                    </mxGeometry>
                </mxCell>
                <mxCell id="372" value="" style="pointerEvents=1;verticalLabelPosition=bottom;shadow=0;dashed=0;align=center;html=1;verticalAlign=top;shape=mxgraph.electrical.inductors.inductor_3;" vertex="1" parent="1">
                    <mxGeometry x="800" y="2590" width="200" height="10" as="geometry"/>
                </mxCell>
                <mxCell id="374" value="" style="pointerEvents=1;verticalLabelPosition=bottom;shadow=0;dashed=0;align=center;html=1;verticalAlign=top;shape=mxgraph.electrical.inductors.inductor_3;strokeWidth=4;" vertex="1" parent="1">
                    <mxGeometry x="1520" y="3170" width="200" height="10" as="geometry"/>
                </mxCell>
                <mxCell id="375" value="" style="pointerEvents=1;verticalLabelPosition=bottom;shadow=0;dashed=0;align=center;html=1;verticalAlign=top;shape=mxgraph.electrical.inductors.inductor_3;strokeWidth=4;" vertex="1" parent="1">
                    <mxGeometry x="1720" y="3170" width="200" height="10" as="geometry"/>
                </mxCell>
                <mxCell id="376" value="" style="endArrow=none;html=1;strokeWidth=4;" edge="1" parent="1">
                    <mxGeometry width="50" height="50" relative="1" as="geometry">
                        <mxPoint x="1520" y="3380" as="sourcePoint"/>
                        <mxPoint x="1520" y="3180" as="targetPoint"/>
                    </mxGeometry>
                </mxCell>
                <mxCell id="377" value="" style="endArrow=none;html=1;strokeWidth=4;" edge="1" parent="1">
                    <mxGeometry width="50" height="50" relative="1" as="geometry">
                        <mxPoint x="1920.0000000000005" y="3380" as="sourcePoint"/>
                        <mxPoint x="1920.0000000000005" y="3180" as="targetPoint"/>
                    </mxGeometry>
                </mxCell>
                <mxCell id="378" value="" style="endArrow=none;html=1;strokeWidth=4;" edge="1" parent="1">
                    <mxGeometry width="50" height="50" relative="1" as="geometry">
                        <mxPoint x="1520" y="3380" as="sourcePoint"/>
                        <mxPoint x="1920.0000000000005" y="3380" as="targetPoint"/>
                    </mxGeometry>
                </mxCell>
                <mxCell id="379" value="" style="endArrow=none;html=1;strokeWidth=4;" edge="1" parent="1">
                    <mxGeometry width="50" height="50" relative="1" as="geometry">
                        <mxPoint x="1490" y="3320" as="sourcePoint"/>
                        <mxPoint x="1550" y="3260" as="targetPoint"/>
                    </mxGeometry>
                </mxCell>
                <mxCell id="380" value="" style="endArrow=none;html=1;strokeWidth=4;" edge="1" parent="1">
                    <mxGeometry width="50" height="50" relative="1" as="geometry">
                        <mxPoint x="1550" y="3320" as="sourcePoint"/>
                        <mxPoint x="1490" y="3260" as="targetPoint"/>
                    </mxGeometry>
                </mxCell>
                <mxCell id="381" value="" style="endArrow=none;html=1;strokeWidth=4;" edge="1" parent="1">
                    <mxGeometry width="50" height="50" relative="1" as="geometry">
                        <mxPoint x="1890.0000000000005" y="3360" as="sourcePoint"/>
                        <mxPoint x="1950.0000000000005" y="3300" as="targetPoint"/>
                    </mxGeometry>
                </mxCell>
                <mxCell id="382" value="" style="endArrow=none;html=1;strokeWidth=4;" edge="1" parent="1">
                    <mxGeometry width="50" height="50" relative="1" as="geometry">
                        <mxPoint x="1950.0000000000005" y="3360" as="sourcePoint"/>
                        <mxPoint x="1890.0000000000005" y="3300" as="targetPoint"/>
                    </mxGeometry>
                </mxCell>
                <mxCell id="383" value="" style="endArrow=none;html=1;strokeWidth=4;" edge="1" parent="1">
                    <mxGeometry width="50" height="50" relative="1" as="geometry">
                        <mxPoint x="1889.9999999999995" y="3270" as="sourcePoint"/>
                        <mxPoint x="1949.9999999999995" y="3210" as="targetPoint"/>
                    </mxGeometry>
                </mxCell>
                <mxCell id="384" value="" style="endArrow=none;html=1;strokeWidth=4;" edge="1" parent="1">
                    <mxGeometry width="50" height="50" relative="1" as="geometry">
                        <mxPoint x="1949.9999999999995" y="3270" as="sourcePoint"/>
                        <mxPoint x="1889.9999999999995" y="3210" as="targetPoint"/>
                    </mxGeometry>
                </mxCell>
                <mxCell id="385" value="" style="endArrow=none;html=1;strokeWidth=4;" edge="1" parent="1">
                    <mxGeometry width="50" height="50" relative="1" as="geometry">
                        <mxPoint x="1880.0000000000005" y="3240" as="sourcePoint"/>
                        <mxPoint x="1960.0000000000005" y="3240" as="targetPoint"/>
                    </mxGeometry>
                </mxCell>
                <mxCell id="386" value="" style="endArrow=none;html=1;strokeWidth=4;" edge="1" parent="1">
                    <mxGeometry width="50" height="50" relative="1" as="geometry">
                        <mxPoint x="1720" y="3520" as="sourcePoint"/>
                        <mxPoint x="1720" y="3380" as="targetPoint"/>
                    </mxGeometry>
                </mxCell>
                <mxCell id="387" value="" style="endArrow=none;html=1;entryX=0;entryY=1;entryDx=0;entryDy=0;entryPerimeter=0;rounded=0;strokeWidth=4;" edge="1" parent="1" target="388">
                    <mxGeometry width="50" height="50" relative="1" as="geometry">
                        <mxPoint x="1719.17" y="3180" as="sourcePoint"/>
                        <mxPoint x="1719" y="2940" as="targetPoint"/>
                        <Array as="points">
                            <mxPoint x="1719" y="2940"/>
                        </Array>
                    </mxGeometry>
                </mxCell>
                <mxCell id="388" value="" style="pointerEvents=1;verticalLabelPosition=bottom;shadow=0;dashed=0;align=center;html=1;verticalAlign=top;shape=mxgraph.electrical.inductors.inductor_3;strokeWidth=4;" vertex="1" parent="1">
                    <mxGeometry x="1800" y="2930" width="200" height="10" as="geometry"/>
                </mxCell>
            </root>
        </mxGraphModel>
    </diagram>
</mxfile>